<?xml version="1.0" encoding="utf-8"?>
<svg version="1.1" xmlns:xlink="http://www.w3.org/1999/xlink" width="14px" height="14px" xmlns="http://www.w3.org/2000/svg">
  <g transform="matrix(1 0 0 1 -900 -403 )">
    <path d="M 14 4.1213125  C 13.9999979197612 3.72348856131555  13.8419612948862 3.34195921464193  13.56065625 3.06065625  L 10.93934375 0.439343749999997  C 10.6580407853581 0.15803870511385  10.2765114386844 0  9.8786875 0  L 1.5 0  C 0.6715625 0  0 0.6715625  0 1.5  L 0 12.5  C 0 13.3284375  0.6715625 14  1.5 14  L 12.5 14  C 13.3284375 14  14 13.3284375  14 12.5  L 14 4.1213125  Z M 4.5 1.5  L 8.5 1.5  L 8.5 4  L 4.5 4  L 4.5 1.5  Z M 12.5 12.3125  C 12.5 12.4160533905933  12.4160533905933 12.5  12.3125 12.5  L 1.6875 12.5  C 1.58394660940673 12.5  1.5 12.4160533905933  1.5 12.3125  L 1.5 1.6875  C 1.5 1.58394660940673  1.58394660940673 1.5  1.6875 1.5  L 3 1.5  L 3 4.75  C 3 5.16421875  3.33578125 5.5  3.75 5.5  L 9.25 5.5  C 9.66421875 5.5  10 5.16421875  10 4.75  L 10 1.6213125  L 12.44509375 4.06640625  C 12.4802554548208 4.10157391061397  12.5000059561498 4.14926962896288  12.5 4.199  L 12.5 12.3125  Z M 9.74999999999999 9  C 9.74999999999999 7.48365625  8.51634375 6.25  7 6.25  C 5.48365625 6.25  4.25 7.48365625  4.25 9  C 4.25 10.51634375  5.48365625 11.75  7 11.75  C 8.51634375 11.75  9.74999999999999 10.51634375  9.74999999999999 9  Z M 8.25 9  C 8.25 9.68925  7.68925 10.25  7 10.25  C 6.31075 10.25  5.75 9.68925  5.75 9  C 5.75 8.31075  6.31075 7.75000000000001  7 7.75000000000001  C 7.68925 7.75000000000001  8.25 8.31075  8.25 9  Z " fill-rule="nonzero" fill="#ffffff" stroke="none" transform="matrix(1 0 0 1 900 403 )" />
  </g>
</svg>