<?xml version="1.0" encoding="utf-8"?>
<svg version="1.1" xmlns:xlink="http://www.w3.org/1999/xlink" width="136px" height="32px" xmlns="http://www.w3.org/2000/svg">
  <defs>
    <mask fill="white" id="clip43">
      <path d="M 0 27.8709677419355  L 0 10.3225806451613  L 0 4.12903225806452  C 0 1.81677419354838  1.75999999999999 0  4 0  L 136 0  L 136 32  L 4 32  C 1.75999999999999 32  0 30.1832258064516  0 27.8709677419355  Z " fill-rule="evenodd" />
    </mask>
  </defs>
  <g transform="matrix(1 0 0 1 -386 -371 )">
    <path d="M 0 27.8709677419355  L 0 10.3225806451613  L 0 4.12903225806452  C 0 1.81677419354838  1.75999999999999 0  4 0  L 136 0  L 136 32  L 4 32  C 1.75999999999999 32  0 30.1832258064516  0 27.8709677419355  Z " fill-rule="nonzero" fill="#dfe2e7" stroke="none" fill-opacity="0" transform="matrix(1 0 0 1 386 371 )" />
    <path d="M 0 27.8709677419355  L 0 10.3225806451613  L 0 4.12903225806452  C 0 1.81677419354838  1.75999999999999 0  4 0  L 136 0  L 136 32  L 4 32  C 1.75999999999999 32  0 30.1832258064516  0 27.8709677419355  Z " stroke-width="2" stroke="#dfe2e7" fill="none" transform="matrix(1 0 0 1 386 371 )" mask="url(#clip43)" />
  </g>
</svg>