<?xml version="1.0" encoding="utf-8"?>
<svg version="1.1" xmlns:xlink="http://www.w3.org/1999/xlink" width="10px" height="15px" xmlns="http://www.w3.org/2000/svg">
  <g transform="matrix(1 0 0 1 -1059 -662 )">
    <path d="M 10 4.41569196428571  C 9.99999851411515 3.98945202998095  9.88711521063296 3.58067058711635  9.68618303571428 3.27927455357143  L 7.81381696428571 0.470725446428568  C 7.61288627525577 0.169327184050553  7.34036531334604 0  7.05620535714286 0  L 1.07142857142857 0  C 0.4796875 0  0 0.71953125  0 1.60714285714286  L 0 13.3928571428571  C 0 14.28046875  0.4796875 15  1.07142857142857 15  L 8.92857142857143 15  C 9.5203125 15  10 14.28046875  10 13.3928571428571  L 10 4.41569196428571  Z M 3.21428571428571 1.60714285714286  L 6.07142857142857 1.60714285714286  L 6.07142857142857 4.28571428571428  L 3.21428571428571 4.28571428571428  L 3.21428571428571 1.60714285714286  Z M 8.92857142857143 13.1919642857143  C 8.92857142857143 13.3029143470642  8.86860956470948 13.3928571428571  8.79464285714286 13.3928571428571  L 1.20535714285714 13.3928571428571  C 1.13139043529052 13.3928571428571  1.07142857142857 13.3029143470642  1 13.1919642857143  L 1 1.80803571428572  C 1.07142857142857 1.69708565293578  1.13139043529052 1.60714285714286  1.20535714285714 1.60714285714286  L 2.14285714285714 1.60714285714286  L 2.14285714285714 5.08928571428572  C 2.14285714285714 5.53309151785714  2.38270089285714 5.89285714285714  2.67857142857143 5.89285714285714  L 6.60714285714286 5.89285714285714  C 6.90301339285714 5.89285714285714  7.14285714285714 5.53309151785714  7.14285714285714 5.08928571428572  L 7.14285714285714 1.73712053571429  L 8.88935267857142 4.35686383928572  C 8.91446818201487 4.39454347565782  8.92857568296416 4.44564603103166  8.92857142857143 4.49892857142857  L 8.92857142857143 13.1919642857143  Z M 6.96428571428571 9.64285714285714  C 6.96428571428571 8.018203125  6.08310267857143 6.69642857142857  5 6.69642857142857  C 3.91689732142857 6.69642857142857  3.03571428571429 8.018203125  3.03571428571429 9.64285714285714  C 3.03571428571429 11.2675111607143  3.91689732142857 12.5892857142857  5 12.5892857142857  C 6.08310267857143 12.5892857142857  6.96428571428571 11.2675111607143  6.96428571428571 9.64285714285714  Z M 5.89285714285714 9.64285714285714  C 5.89285714285714 10.3813392857143  5.49232142857143 10.9821428571429  5 10.9821428571429  C 4.50767857142857 10.9821428571429  4.10714285714286 10.3813392857143  4.10714285714286 9.64285714285714  C 4.10714285714286 8.904375  4.50767857142857 8.30357142857143  5 8.30357142857143  C 5.49232142857143 8.30357142857143  5.89285714285714 8.904375  5.89285714285714 9.64285714285714  Z " fill-rule="nonzero" fill="#ffffff" stroke="none" transform="matrix(1 0 0 1 1059 662 )" />
  </g>
</svg>