<?xml version="1.0" encoding="utf-8"?>
<svg version="1.1" xmlns:xlink="http://www.w3.org/1999/xlink" width="16px" height="16px" xmlns="http://www.w3.org/2000/svg">
  <g transform="matrix(1 0 0 1 -658 -264 )">
    <path d="M 15.7586949830717 4.14502923976608  C 15.7586949830717 3.74892787524366  15.5493998153278 3.36530214424951  15.180055401662 3.08460038986354  L 11.7369447009336 0.467836257309946  C 11.3676002872679 0.187134502923973  10.8669334154099 0.0280701754385973  10.3457474094593 0.0280701754385973  L 1.96983687288396 0.0280701754385973  C 0.882322765979277 0.0311890838206637  0 0.701754385964914  0 1.52826510721247  L 0 14.5029239766082  C 0 15.3294346978557  0.882322765979277 16  1.96983687288396 16  L 13.7888581101877 16  C 14.8763722170924 16  15.7586949830717 15.3294346978557  15.7586949830717 14.5029239766082  L 15.7586949830717 4.14502923976608  Z M 10.5057966553811 1.64990253411306  L 13.6288088642659 4.02339181286549  L 10.5057966553811 4.02339181286549  L 10.5057966553811 1.64990253411306  Z M 13.7888581101877 14.5029239766082  L 2 14.5029239766082  L 2 1.52826510721247  L 8.53595978249717 1.52826510721247  L 8.53595978249717 4.7719298245614  C 8.53595978249717 5.18674463937622  8.97506925207755 5.52046783625731  9.52087821893916 5.52046783625731  L 13.7888581101877 5.52046783625731  L 13.7888581101877 14.5029239766082  Z M 11.0926438904278 7.57894736842105  C 11.2855237508977 7.32943469785575  11.0475017954242 7.01754385964912  10.6699497281215 7.01754385964912  L 9.48804760439109 7.01754385964912  C 9.30747922437673 7.01754385964912  9.1433261516364 7.09239766081872  9.05714578844772 7.21403508771929  C 8.31845696111624 8.24639376218323  8.14609623473889 8.5364522417154  7.88345131835436 9.01364522417154  C 7.31301939058171 8.10604288499026  7.6002872678773 8.47407407407407  6.709756848261 7.21403508771929  C 6.62357648507233 7.09239766081872  6.4553195855135 7.01754385964912  6.27475120549913 7.01754385964912  L 5.08874525495024 7.01754385964912  C 4.70708936082898 7.01754385964912  4.473171232174 7.32943469785575  4.66194726582538 7.57894736842105  L 6.5620190827947 10.0116959064328  L 4.66194726582538 12.4444444444444  C 4.46906740535549 12.6939571150097  4.70708936082898 13.0058479532164  5.08874525495024 13.0058479532164  L 6.27475120549913 13.0058479532164  C 6.45531958551348 13.0058479532164  6.61947265825382 12.9309941520468  6.70565302144249 12.8093567251462  C 7.59618344105879 11.5617933723197  7.6495331896994 11.4058479532164  7.87934749153585 11.009746588694  C 8.49081768749358 11.951656920078  8.12147327382784 11.5056530214425  9.05304196162921 12.8093567251462  C 9.13922232481789 12.9309941520468  9.30747922437672 13.0058479532164  9.48804760439109 13.0058479532164  L 10.6699497281215 13.0058479532164  C 11.0516056222427 13.0058479532164  11.2855237508977 12.6939571150097  11.0967477172463 12.4444444444444  L 9.1925720734585 10.0116959064328  C 9.22129886118806 9.97738791423002  10.4360315994665 8.43664717348928  11.0926438904278 7.57894736842105  Z " fill-rule="nonzero" fill="#ffffff" stroke="none" transform="matrix(1 0 0 1 658 264 )" />
  </g>
</svg>