<?xml version="1.0" encoding="utf-8"?>
<svg version="1.1" xmlns:xlink="http://www.w3.org/1999/xlink" width="12px" height="12px" xmlns="http://www.w3.org/2000/svg">
  <g transform="matrix(1 0 0 1 -1279 -460 )">
    <path d="M 5.98792756539235 0  C 9.29118712273642 0  11.9697464788732 2.67476861167002  11.9758551307847 5.97660362173038  C 11.9819637826962 9.27575855130785  9.29142857142857 11.9735130784708  5.9922736418511 11.9758309859155  C 4.56736418511066 11.9768450704225  3.25851911468813 11.4801368209256  2.22997183098591 10.6500120724346  C 1.96251911468813 10.4341569416499  1.94252716297787 10.0333279678068  2.18556941649899 9.79028571428571  L 2.45760965794769 9.51824547283702  C 2.66547283702213 9.31038229376258  2.9973199195171 9.28763782696177  3.22761368209255 9.47034205231389  C 3.98540040241449 10.0716700201207  4.94441046277666 10.430583501006  5.98792756539235 10.430583501006  C 8.4435814889336 10.430583501006  10.430583501006 8.44319517102616  10.430583501006 5.98792756539235  C 10.430583501006 3.53227364185111  8.44319517102616 1.54527162977867  5.98792756539235 1.54527162977867  C 4.8093199195171 1.54527162977867  3.73885714285714 2.00327565392354  2.94403219315895 2.75087323943662  L 4.16948088531187 3.97632193158954  C 4.41286116700201 4.21970221327968  4.24049094567405 4.63581488933602  3.89632997987927 4.63581488933602  L 0.386317907444668 4.63581488933602  C 0.172949698189136 4.63581488933602  0 4.46286519114688  0 4.24949698189135  L 0 0.739484909456742  C 0 0.39532394366197  0.416112676056337 0.222953722334009  0.659492957746481 0.466309859154935  L 1.85157344064386 1.65839034205231  C 2.9265754527163 0.631050301810869  4.38354929577465 0  5.98792756539235 0  Z M 6.79458350100603 7.9804828973843  C 7.04721126760564 8.17694969818913  7.4112676056338 8.13146076458752  7.60775855130785 7.87883299798793  L 7.84493360160966 7.57388329979879  C 8.0414245472837 7.3212555331992  7.99591146881288 6.95717505030181  7.74328370221328 6.76070824949698  L 6.76056338028169 5.99635412474849  L 6.76056338028169 3.47686116700201  C 6.76056338028169 3.15682092555332  6.50112676056338 2.897384305835  6.18108651911469 2.897384305835  L 5.79476861167002 2.897384305835  C 5.47472837022133 2.897384305835  5.21529175050302 3.15682092555332  5.21529175050302 3.47686116700201  L 5.21529175050302 6.75213682092556  L 6.79458350100603 7.9804828973843  Z " fill-rule="nonzero" fill="#2b97be" stroke="none" transform="matrix(1 0 0 1 1279 460 )" />
  </g>
</svg>