<?xml version="1.0" encoding="utf-8"?>
<svg version="1.1" xmlns:xlink="http://www.w3.org/1999/xlink" width="14px" height="16px" xmlns="http://www.w3.org/2000/svg">
  <g transform="matrix(1 0 0 1 -665 -352 )">
    <path d="M 13.7888581101877 4.14502923976608  C 13.7888581101877 3.74892787524366  13.6057248384118 3.36530214424951  13.2825484764543 3.08460038986354  L 10.2698266133169 0.467836257309946  C 9.94665025135938 0.187134502923973  9.50856673848363 0.0280701754385973  9.0525289832769 0.0280701754385973  L 1.72360726377347 0.0280701754385973  C 0.772032420231867 0.0311890838206637  0 0.701754385964914  0 1.52826510721247  L 0 14.5029239766082  C 0 15.3294346978557  0.772032420231867 16  1.72360726377347 16  L 12.0652508464143 16  C 13.0168256899559 16  13.7888581101877 15.3294346978557  13.7888581101877 14.5029239766082  L 13.7888581101877 4.14502923976608  Z M 9.1925720734585 1.64990253411306  L 11.9252077562327 4.02339181286549  L 9.1925720734585 4.02339181286549  L 9.1925720734585 1.64990253411306  Z M 12.0652508464143 14.5029239766082  L 2 14.5029239766082  L 2 1.52826510721247  L 7.46896480968502 1.52826510721247  L 7.46896480968502 4.7719298245614  C 7.46896480968502 5.18674463937622  7.85318559556786 5.52046783625731  8.33076844157176 5.52046783625731  L 12.0652508464143 5.52046783625731  L 12.0652508464143 14.5029239766082  Z M 9.70606340412434 7.57894736842105  C 9.8748332820355 7.32943469785575  9.6665640709962 7.01754385964912  9.33620601210628 7.01754385964912  L 8.3020416538422 7.01754385964912  C 8.14404432132964 7.01754385964912  8.00041038268185 7.09239766081872  7.92500256489176 7.21403508771929  C 7.27864984097671 8.24639376218323  7.12783420539653 8.5364522417154  6.89801990356007 9.01364522417154  C 6.398891966759 8.10604288499026  6.65025135939263 8.47407407407407  5.87103724222838 7.21403508771929  C 5.79562942443829 7.09239766081872  5.64840463732431 7.01754385964912  5.49040730481174 7.01754385964912  L 4.45265209808146 7.01754385964912  C 4.11870319072535 7.01754385964912  3.91402482815225 7.32943469785575  4.07920385759721 7.57894736842105  L 5.74176669744536 10.0116959064328  L 4.07920385759721 12.4444444444444  C 3.91043397968605 12.6939571150097  4.11870319072535 13.0058479532164  4.45265209808146 13.0058479532164  L 5.49040730481174 13.0058479532164  C 5.6484046373243 13.0058479532164  5.79203857597209 12.9309941520468  5.86744639376218 12.8093567251462  C 6.64666051092644 11.5617933723197  6.69334154098697 11.4058479532164  6.89442905509387 11.009746588694  C 7.42946547655688 11.951656920078  7.10628911459936 11.5056530214425  7.92141171642556 12.8093567251462  C 7.99681953421565 12.9309941520468  8.14404432132963 13.0058479532164  8.3020416538422 13.0058479532164  L 9.33620601210628 13.0058479532164  C 9.67015491946239 13.0058479532164  9.8748332820355 12.6939571150097  9.70965425259053 12.4444444444444  L 8.04350056427619 10.0116959064328  C 8.06863650353955 9.97738791423002  9.13152764953319 8.43664717348928  9.70606340412434 7.57894736842105  Z " fill-rule="nonzero" fill="#ffffff" stroke="none" transform="matrix(1 0 0 1 665 352 )" />
  </g>
</svg>