<?xml version="1.0" encoding="utf-8"?>
<svg version="1.1" xmlns:xlink="http://www.w3.org/1999/xlink" width="32px" height="30px" xmlns="http://www.w3.org/2000/svg">
  <g transform="matrix(1 0 0 1 -1646 -149 )">
    <path d="M 1662 149  C 1670.96 149  1678 155.6  1678 164  C 1678 172.4  1670.96 179  1662 179  C 1653.04 179  1646 172.4  1646 164  C 1646 155.6  1653.04 149  1662 149  Z " fill-rule="nonzero" fill="#f59a23" stroke="none" fill-opacity="0.545098039215686" />
    <path d="M 1662 149.5  C 1670.68 149.5  1677.5 155.88  1677.5 164  C 1677.5 172.12  1670.68 178.5  1662 178.5  C 1653.32 178.5  1646.5 172.12  1646.5 164  C 1646.5 155.88  1653.32 149.5  1662 149.5  Z " stroke-width="1" stroke="#f59a23" fill="none" />
  </g>
</svg>