<?xml version="1.0" encoding="utf-8"?>
<svg version="1.1" xmlns:xlink="http://www.w3.org/1999/xlink" width="32px" height="30px" xmlns="http://www.w3.org/2000/svg">
  <g transform="matrix(1 0 0 1 -1646 -106 )">
    <path d="M 1662 106  C 1670.96 106  1678 112.6  1678 121  C 1678 129.4  1670.96 136  1662 136  C 1653.04 136  1646 129.4  1646 121  C 1646 112.6  1653.04 106  1662 106  Z " fill-rule="nonzero" fill="#81d3f8" stroke="none" fill-opacity="0.545098039215686" />
    <path d="M 1662 106.5  C 1670.68 106.5  1677.5 112.88  1677.5 121  C 1677.5 129.12  1670.68 135.5  1662 135.5  C 1653.32 135.5  1646.5 129.12  1646.5 121  C 1646.5 112.88  1653.32 106.5  1662 106.5  Z " stroke-width="1" stroke="#81d3f8" fill="none" />
  </g>
</svg>