<?xml version="1.0" encoding="utf-8"?>
<svg version="1.1" xmlns:xlink="http://www.w3.org/1999/xlink" width="9px" height="9px" xmlns="http://www.w3.org/2000/svg">
  <g transform="matrix(1 0 0 1 -993 -362 )">
    <path d="M 9 0.958806818181818  C 9 0.429465553977273  8.6220703125 0  8.15625 0  L 0.84375 0  C 0.3779296875 0  0 0.429465553977273  0 0.958806818181818  L 0 7.99005681818182  C 0 8.51939808238636  0.3779296875 8.94886363636364  0.84375 8.94886363636364  L 8.15625 8.94886363636364  C 8.6220703125 8.94886363636364  9 8.51939808238636  9 7.99005681818182  L 9 0.958806818181818  Z M 8.15625 1.07865767045455  L 8.15625 7.87020596590909  C 8.15625 7.93612393465909  8.1087890625 7.99005681818182  8.05078125 7.99005681818182  L 0.94921875 7.99005681818182  C 0.8912109375 7.99005681818182  0.84375 7.93612393465909  0.84375 7.87020596590909  L 0.84375 1.07865767045455  C 0.84375 1.01273970170455  0.8912109375 0.958806818181818  0.94921875 0.958806818181818  L 8.05078125 0.958806818181818  C 8.1087890625 0.958806818181818  8.15625 1.01273970170455  8.15625 1.07865767045455  Z M 6.2666015625 2.91237571022727  C 6.34921875 3.00426136363636  6.34921875 3.15407492897727  6.2666015625 3.24795809659091  L 5.1873046875 4.47443181818182  L 6.2666015625 5.70090553977273  C 6.3474609375 5.79279119318182  6.3474609375 5.94260475852273  6.2666015625 6.03648792613636  L 5.874609375 6.48193359375  C 5.79375 6.57381924715909  5.6619140625 6.57381924715909  5.579296875 6.48193359375  L 4.5 5.25545987215909  L 3.420703125 6.48193359375  C 3.33984375 6.57381924715909  3.2080078125 6.57381924715909  3.125390625 6.48193359375  L 2.7333984375 6.03648792613636  C 2.6525390625 5.94460227272727  2.6525390625 5.79478870738636  2.7333984375 5.70090553977273  L 3.8126953125 4.47443181818182  L 2.7333984375 3.24795809659091  C 2.6525390625 3.15607244318182  2.6525390625 3.00625887784091  2.7333984375 2.91237571022727  L 3.125390625 2.46693004261364  C 3.20625 2.37504438920455  3.3380859375 2.37504438920455  3.420703125 2.46693004261364  L 4.5 3.69340376420455  L 5.579296875 2.46693004261364  C 5.66015625 2.37504438920455  5.7919921875 2.37504438920455  5.874609375 2.46693004261364  L 6.2666015625 2.91237571022727  Z " fill-rule="nonzero" fill="#2b97be" stroke="none" transform="matrix(1 0 0 1 993 362 )" />
  </g>
</svg>