<?xml version="1.0" encoding="utf-8"?>
<svg version="1.1" xmlns:xlink="http://www.w3.org/1999/xlink" width="14px" height="17px" xmlns="http://www.w3.org/2000/svg">
  <g transform="matrix(1 0 0 1 -1061 -264 )">
    <path d="M 14 5.00445089285714  C 13.9999979197612 4.52137896731174  13.8419612948862 4.0580933320652  13.56065625 3.71651116071429  L 10.93934375 0.533488839285711  C 10.6580407853581 0.19190414192396  10.2765114386844 0  9.8786875 0  L 1.5 0  C 0.6715625 0  0 0.81546875  0 1.82142857142857  L 0 15.1785714285714  C 0 16.18453125  0.6715625 17  1.5 17  L 12.5 17  C 13.3284375 17  14 16.18453125  14 15.1785714285714  L 14 5.00445089285714  Z M 4.5 1.82142857142857  L 8.5 1.82142857142857  L 8.5 4.85714285714285  L 4.5 4.85714285714285  L 4.5 1.82142857142857  Z M 12.5 14.9508928571429  C 12.5 15.0766362600061  12.4160533905933 15.1785714285714  12.3125 15  L 1.6875 15  C 1.58394660940673 15.1785714285714  1.5 15.0766362600061  1.5 14.9508928571429  L 1.5 2.04910714285715  C 1.5 1.92336373999388  1.58394660940673 1.82142857142857  1.6875 1.82142857142857  L 3 1.82142857142857  L 3 5.76785714285715  C 3 6.27083705357143  3.33578125 6.67857142857143  3.75 6.67857142857143  L 9.25 6.67857142857143  C 9.66421875 6.67857142857143  10 6.27083705357143  10 5.76785714285715  L 10 1.96873660714286  L 12.44509375 4.93777901785715  C 12.4802554548208 4.98048260574553  12.5000059561498 5.03839883516921  12.5 5.09878571428571  L 12.5 14.9508928571429  Z M 9.74999999999999 10.9285714285714  C 9.74999999999999 9.087296875  8.51634375 7.58928571428572  7 7.58928571428572  C 5.48365625 7.58928571428572  4.25 9.087296875  4.25 10.9285714285714  C 4.25 12.7698459821429  5.48365625 14.2678571428571  7 14.2678571428571  C 8.51634375 14.2678571428571  9.74999999999999 12.7698459821429  9.74999999999999 10.9285714285714  Z M 8.25 10.9285714285714  C 8.25 11.7655178571429  7.68925 12.4464285714286  7 12.4464285714286  C 6.31075 12.4464285714286  5.75 11.7655178571429  5.75 10.9285714285714  C 5.75 10.091625  6.31075 9.41071428571429  7 9.41071428571429  C 7.68925 9.41071428571429  8.25 10.091625  8.25 10.9285714285714  Z " fill-rule="nonzero" fill="#ffffff" stroke="none" transform="matrix(1 0 0 1 1061 264 )" />
  </g>
</svg>