<?xml version="1.0" encoding="utf-8"?>
<svg version="1.1" xmlns:xlink="http://www.w3.org/1999/xlink" width="10px" height="16px" xmlns="http://www.w3.org/2000/svg">
  <g transform="matrix(1 0 0 1 -865 -727 )">
    <path d="M 10 4.71007142857143  C 9.99999851411515 4.25541549864634  9.88711521063296 3.81938195959077  9.68618303571428 3.49789285714286  L 7.81381696428571 0.50210714285714  C 7.61288627525577 0.180615662987257  7.34036531334604 0  7.05620535714286 0  L 1.07142857142857 0  C 0.4796875 0  0 0.7675  0 1.71428571428572  L 0 14.2857142857143  C 0 15.2325  0.4796875 16  1.07142857142857 16  L 8.92857142857143 16  C 9.5203125 16  10 15.2325  10 14.2857142857143  L 10 4.71007142857143  Z M 3.21428571428571 1.71428571428572  L 6.07142857142857 1.71428571428572  L 6.07142857142857 4.57142857142857  L 3.21428571428571 4.57142857142857  L 3.21428571428571 1.71428571428572  Z M 8.92857142857143 14.0714285714286  C 8.92857142857143 14.1897753035352  8.86860956470948 14.2857142857143  8.79464285714286 14.2857142857143  L 1.20535714285714 14.2857142857143  C 1.13139043529052 14.2857142857143  1.07142857142857 14.1897753035352  1 14.0714285714286  L 1 1.92857142857143  C 1.07142857142857 1.81022469646483  1.13139043529052 1.71428571428572  1.20535714285714 1.71428571428572  L 2.14285714285714 1.71428571428572  L 2.14285714285714 5.42857142857143  C 2.14285714285714 5.90196428571428  2.38270089285714 6.28571428571428  2.67857142857143 6.28571428571428  L 6.60714285714286 6.28571428571428  C 6.90301339285714 6.28571428571428  7.14285714285714 5.90196428571428  7.14285714285714 5.42857142857143  L 7.14285714285714 1.85292857142857  L 8.88935267857142 4.64732142857143  C 8.91446818201487 4.68751304070168  8.92857568296416 4.74202243310044  8.92857142857143 4.79885714285714  L 8.92857142857143 14.0714285714286  Z M 6.96428571428571 10.2857142857143  C 6.96428571428571 8.55275  6.08310267857143 7.14285714285715  5 7.14285714285715  C 3.91689732142857 7.14285714285715  3.03571428571429 8.55275  3.03571428571429 10.2857142857143  C 3.03571428571429 12.0186785714286  3.91689732142857 13.4285714285714  5 13.4285714285714  C 6.08310267857143 13.4285714285714  6.96428571428571 12.0186785714286  6.96428571428571 10.2857142857143  Z M 5.89285714285714 10.2857142857143  C 5.89285714285714 11.0734285714286  5.49232142857143 11.7142857142857  5 11.7142857142857  C 4.50767857142857 11.7142857142857  4.10714285714286 11.0734285714286  4.10714285714286 10.2857142857143  C 4.10714285714286 9.498  4.50767857142857 8.85714285714286  5 8.85714285714286  C 5.49232142857143 8.85714285714286  5.89285714285714 9.498  5.89285714285714 10.2857142857143  Z " fill-rule="nonzero" fill="#ffffff" stroke="none" transform="matrix(1 0 0 1 865 727 )" />
  </g>
</svg>