<?xml version="1.0" encoding="utf-8"?>
<svg version="1.1" xmlns:xlink="http://www.w3.org/1999/xlink" width="13px" height="14px" xmlns="http://www.w3.org/2000/svg">
  <g transform="matrix(1 0 0 1 -954 -727 )">
    <path d="M 13 7  C 13 3.13306451612903  10.0907258064516 0  6.5 0  C 2.90927419354839 0  0 3.13306451612903  0 7  C 0 10.866935483871  2.90927419354839 14  6.5 14  C 10.0907258064516 14  13 10.866935483871  13 7  Z M 11.741935483871 7  C 11.741935483871 10.1189516129032  9.39616935483871 12.6451612903226  6.5 12.6451612903226  C 3.60383064516129 12.6451612903226  1.25806451612903 10.1189516129032  1.25806451612903 7  C 1.25806451612903 3.88104838709678  3.60383064516129 1.35483870967742  6.5 1.35483870967742  C 9.39616935483871 1.35483870967742  11.741935483871 3.88104838709678  11.741935483871 7  Z M 9.16814516129033 4.76451612903226  C 9.29133064516129 4.89717741935484  9.29133064516129 5.11169354838709  9.16814516129032 5.24435483870967  L 7.53790322580645 7  L 9.16814516129032 8.75564516129032  C 9.29133064516129 8.88830645161291  9.29133064516129 9.10282258064516  9.16814516129032 9.23548387096775  L 8.57580645161291 9.87338709677419  C 8.45262096774193 10.0060483870968  8.25342741935484 10.0060483870968  8.13024193548387 9.87338709677419  L 6.5 8.11774193548387  L 4.86975806451613 9.87338709677419  C 4.74657258064516 10.0060483870968  4.54737903225807 10.0060483870968  4.42419354838709 9.87338709677419  L 3.83185483870968 9.23548387096775  C 3.70866935483871 9.10282258064516  3.70866935483871 8.88830645161291  3.83185483870968 8.75564516129032  L 5.46209677419355 7  L 3.83185483870968 5.24435483870967  C 3.70866935483871 5.11169354838709  3.70866935483871 4.89717741935484  3.83185483870968 4.76451612903225  L 4.4241935483871 4.12661290322581  C 4.54737903225807 3.99395161290323  4.74657258064516 3.99395161290323  4.86975806451613 4.12661290322581  L 6.5 5.88225806451613  L 8.13024193548387 4.12661290322581  C 8.25342741935484 3.99395161290323  8.45262096774193 3.99395161290323  8.57580645161291 4.12661290322581  L 9.16814516129033 4.76451612903226  Z " fill-rule="nonzero" fill="#ffffff" stroke="none" transform="matrix(1 0 0 1 954 727 )" />
  </g>
</svg>