<?xml version="1.0" encoding="utf-8"?>
<svg version="1.1" xmlns:xlink="http://www.w3.org/1999/xlink" width="10px" height="12px" xmlns="http://www.w3.org/2000/svg">
  <g transform="matrix(1 0 0 1 -1008 -414 )">
    <path d="M 10 1.27840909090909  C 10 0.572620738636364  9.580078125 0  9.0625 0  L 0.9375 0  C 0.419921875 0  0 0.572620738636364  0 1.27840909090909  L 0 10.6534090909091  C 0 11.3591974431818  0.419921875 11.9318181818182  0.9375 11.9318181818182  L 9.0625 11.9318181818182  C 9.580078125 11.9318181818182  10 11.3591974431818  10 10.6534090909091  L 10 1.27840909090909  Z M 9.0625 1.43821022727273  L 9.0625 10.4936079545455  C 9.0625 10.5814985795455  9.009765625 10.6534090909091  8.9453125 10.6534090909091  L 1.0546875 10.6534090909091  C 0.990234375 10.6534090909091  0.9375 10.5814985795455  0.9375 10.4936079545455  L 0.9375 1.43821022727273  C 0.9375 1.35031960227273  0.990234375 1.27840909090909  1.0546875 1.27840909090909  L 8.9453125 1.27840909090909  C 9.009765625 1.27840909090909  9.0625 1.35031960227273  9.0625 1.43821022727273  Z M 6.962890625 3.88316761363636  C 7.0546875 4.00568181818182  7.0546875 4.20543323863636  6.962890625 4.33061079545455  L 5.763671875 5.96590909090909  L 6.962890625 7.60120738636364  C 7.052734375 7.72372159090909  7.052734375 7.92347301136364  6.962890625 8.04865056818182  L 6.52734375 8.642578125  C 6.4375 8.76509232954546  6.291015625 8.76509232954546  6.19921875 8.642578125  L 5 7.00727982954546  L 3.80078125 8.642578125  C 3.7109375 8.76509232954546  3.564453125 8.76509232954546  3.47265625 8.642578125  L 3.037109375 8.04865056818182  C 2.947265625 7.92613636363636  2.947265625 7.72638494318182  3.037109375 7.60120738636364  L 4.236328125 5.96590909090909  L 3.037109375 4.33061079545455  C 2.947265625 4.20809659090909  2.947265625 4.00834517045455  3.037109375 3.88316761363636  L 3.47265625 3.28924005681818  C 3.5625 3.16672585227273  3.708984375 3.16672585227273  3.80078125 3.28924005681818  L 5 4.92453835227273  L 6.19921875 3.28924005681818  C 6.2890625 3.16672585227273  6.435546875 3.16672585227273  6.52734375 3.28924005681818  L 6.962890625 3.88316761363636  Z " fill-rule="nonzero" fill="#2b97be" stroke="none" transform="matrix(1 0 0 1 1008 414 )" />
  </g>
</svg>