<?xml version="1.0" encoding="utf-8"?>
<svg version="1.1" xmlns:xlink="http://www.w3.org/1999/xlink" width="16px" height="16px" xmlns="http://www.w3.org/2000/svg">
  <g transform="matrix(1 0 0 1 -654 -472 )">
    <path d="M 16 8  C 16 3.58064516129032  12.4193548387097 0  8 0  C 3.58064516129032 0  0 3.58064516129032  0 8  C 0 12.4193548387097  3.58064516129032 16  8 16  C 12.4193548387097 16  16 12.4193548387097  16 8  Z M 14.4516129032258 8  C 14.4516129032258 11.5645161290323  11.5645161290323 14.4516129032258  8 14.4516129032258  C 4.43548387096775 14.4516129032258  1.5483870967742 11.5645161290323  1.5483870967742 8  C 1.5483870967742 4.43548387096775  4.43548387096775 1.5483870967742  8 1.5483870967742  C 11.5645161290323 1.5483870967742  14.4516129032258 4.43548387096775  14.4516129032258 8  Z M 11.2838709677419 5.44516129032259  C 11.4354838709677 5.59677419354839  11.4354838709677 5.84193548387097  11.2838709677419 5.99354838709677  L 9.27741935483871 8  L 11.2838709677419 10.0064516129032  C 11.4354838709677 10.158064516129  11.4354838709677 10.4032258064516  11.2838709677419 10.5548387096774  L 10.5548387096774 11.2838709677419  C 10.4032258064516 11.4354838709677  10.158064516129 11.4354838709677  10.0064516129032 11.2838709677419  L 8 9.27741935483871  L 5.99354838709677 11.2838709677419  C 5.84193548387097 11.4354838709677  5.59677419354839 11.4354838709677  5.44516129032258 11.2838709677419  L 4.71612903225807 10.5548387096774  C 4.56451612903226 10.4032258064516  4.56451612903226 10.158064516129  4.71612903225807 10.0064516129032  L 6.72258064516129 8  L 4.71612903225807 5.99354838709677  C 4.56451612903226 5.84193548387097  4.56451612903226 5.59677419354839  4.71612903225807 5.44516129032258  L 5.44516129032259 4.71612903225807  C 5.59677419354839 4.56451612903226  5.84193548387097 4.56451612903226  5.99354838709678 4.71612903225807  L 8 6.72258064516129  L 10.0064516129032 4.71612903225807  C 10.158064516129 4.56451612903226  10.4032258064516 4.56451612903226  10.5548387096774 4.71612903225807  L 11.2838709677419 5.44516129032259  Z " fill-rule="nonzero" fill="#ffffff" stroke="none" transform="matrix(1 0 0 1 654 472 )" />
  </g>
</svg>