<?xml version="1.0" encoding="utf-8"?>
<svg version="1.1" xmlns:xlink="http://www.w3.org/1999/xlink" width="10px" height="10px" xmlns="http://www.w3.org/2000/svg">
  <g transform="matrix(1 0 0 1 -277 -577 )">
    <path d="M 10 1.07142857142857  C 10 0.479910714285711  9.52008928571429 0  8.92857142857143 0  L 1.07142857142857 0  C 0.479910714285717 0  0 0.479910714285711  0 1.07142857142857  L 0 8.92857142857142  C 0 9.52008928571429  0.479910714285717 10  1.07142857142857 10  L 8.92857142857143 10  C 9.52008928571429 10  10 9.52008928571429  10 8.92857142857142  L 10 1.07142857142857  Z M 8.21428571428571 4.375  L 8.21428571428571 5.625  C 8.21428571428571 5.77232142857142  8.09375 5.89285714285713  7.94642857142857 5.89285714285713  L 5.89285714285714 5.89285714285713  L 5.89285714285714 7.94642857142858  C 5.89285714285714 8.09375  5.77232142857143 8.21428571428571  5.625 8.21428571428571  L 4.375 8.21428571428571  C 4.22767857142857 8.21428571428571  4.10714285714286 8.09375  4.10714285714286 7.94642857142858  L 4.10714285714286 5.89285714285713  L 2.05357142857143 5.89285714285713  C 1.90625 5.89285714285713  1.78571428571428 5.77232142857142  1.78571428571428 5.625  L 1.78571428571428 4.375  C 1.78571428571428 4.22767857142857  1.90625 4.10714285714286  2.05357142857143 4.10714285714286  L 4.10714285714286 4.10714285714286  L 4.10714285714286 2.05357142857143  C 4.10714285714286 1.90625  4.22767857142857 1.78571428571429  4.375 1.78571428571429  L 5.625 1.78571428571429  C 5.77232142857143 1.78571428571429  5.89285714285714 1.90625  5.89285714285714 2.05357142857143  L 5.89285714285714 4.10714285714286  L 7.94642857142857 4.10714285714286  C 8.09375 4.10714285714286  8.21428571428571 4.22767857142857  8.21428571428571 4.375  Z " fill-rule="nonzero" fill="#ffffff" stroke="none" transform="matrix(1 0 0 1 277 577 )" />
  </g>
</svg>