<?xml version="1.0" encoding="utf-8"?>
<svg version="1.1" xmlns:xlink="http://www.w3.org/1999/xlink" width="10px" height="10px" xmlns="http://www.w3.org/2000/svg">
  <g transform="matrix(1 0 0 1 -277 -653 )">
    <path d="M 7.79296875 5.70963541666667  C 7.87543402777778 5.62717013888889  7.91666666666667 5.52951388888889  7.91666666666667 5.41666666666667  L 7.91666666666667 4.58333333333333  C 7.91666666666667 4.47048611111111  7.87543402777778 4.37282986111111  7.79296875 4.29036458333333  C 7.71050347222222 4.20789930555556  7.61284722222222 4.16666666666667  7.5 4.16666666666667  L 2.5 4.16666666666667  C 2.38715277777778 4.16666666666667  2.28949652777778 4.20789930555556  2.20703125 4.29036458333333  C 2.12456597222222 4.37282986111111  2.08333333333333 4.47048611111111  2.08333333333333 4.58333333333333  L 2.08333333333333 5.41666666666667  C 2.08333333333333 5.52951388888889  2.12456597222222 5.62717013888889  2.20703125 5.70963541666667  C 2.28949652777778 5.79210069444444  2.38715277777778 5.83333333333333  2.5 5.83333333333333  L 7.5 5.83333333333333  C 7.61284722222222 5.83333333333333  7.71050347222222 5.79210069444444  7.79296875 5.70963541666667  Z M 9.32942708333333 2.490234375  C 9.77647569444444 3.25629340277778  10 4.09288194444444  10 5  C 10 5.90711805555556  9.77647569444444 6.74370659722222  9.32942708333333 7.509765625  C 8.88237847222222 8.27582465277778  8.27582465277778 8.88237847222222  7.509765625 9.32942708333333  C 6.74370659722222 9.77647569444444  5.90711805555556 10  5 10  C 4.09288194444444 10  3.25629340277778 9.77647569444444  2.490234375 9.32942708333333  C 1.72417534722222 8.88237847222222  1.11762152777778 8.27582465277778  0.670572916666667 7.509765625  C 0.223524305555556 6.74370659722222  0 5.90711805555556  0 5  C 0 4.09288194444444  0.223524305555556 3.25629340277778  0.670572916666667 2.490234375  C 1.11762152777778 1.72417534722222  1.72417534722222 1.11762152777778  2.490234375 0.670572916666666  C 3.25629340277778 0.223524305555555  4.09288194444444 0  5 0  C 5.90711805555556 0  6.74370659722222 0.223524305555555  7.509765625 0.670572916666666  C 8.27582465277778 1.11762152777778  8.88237847222222 1.72417534722222  9.32942708333333 2.490234375  Z " fill-rule="nonzero" fill="#2b97be" stroke="none" transform="matrix(1 0 0 1 277 653 )" />
  </g>
</svg>