<?xml version="1.0" encoding="utf-8"?>
<svg version="1.1" xmlns:xlink="http://www.w3.org/1999/xlink" width="136px" height="31px" xmlns="http://www.w3.org/2000/svg">
  <defs>
    <mask fill="white" id="clip35">
      <path d="M 0 27  L 0 10  L 0 4  C 0 1.75999999999999  1.75999999999999 0  4 0  L 136 0  L 136 31  L 4 31  C 1.75999999999999 31  0 29.24  0 27  Z " fill-rule="evenodd" />
    </mask>
  </defs>
  <g transform="matrix(1 0 0 1 -260 -266 )">
    <path d="M 0 27  L 0 10  L 0 4  C 0 1.75999999999999  1.75999999999999 0  4 0  L 136 0  L 136 31  L 4 31  C 1.75999999999999 31  0 29.24  0 27  Z " fill-rule="nonzero" fill="#dfe2e7" stroke="none" fill-opacity="0" transform="matrix(1 0 0 1 260 266 )" />
    <path d="M 0 27  L 0 10  L 0 4  C 0 1.75999999999999  1.75999999999999 0  4 0  L 136 0  L 136 31  L 4 31  C 1.75999999999999 31  0 29.24  0 27  Z " stroke-width="2" stroke="#dfe2e7" fill="none" transform="matrix(1 0 0 1 260 266 )" mask="url(#clip35)" />
  </g>
</svg>