<?xml version="1.0" encoding="utf-8"?>
<svg version="1.1" xmlns:xlink="http://www.w3.org/1999/xlink" width="12px" height="14px" xmlns="http://www.w3.org/2000/svg">
  <g transform="matrix(1 0 0 1 -688 -318 )">
    <path d="M 12 4.1213125  C 11.9999982169382 3.72348856131555  11.8645382527596 3.34195921464193  11.6234196428571 3.06065625  L 9.37658035714285 0.439343749999997  C 9.13546353030692 0.15803870511385  8.80843837601524 0  8.46744642857143 0  L 1.28571428571429 0  C 0.575625 0  0 0.6715625  0 1.5  L 0 12.5  C 0 13.3284375  0.575625 14  1.28571428571429 14  L 10.7142857142857 14  C 11.424375 14  12 13.3284375  12 12.5  L 12 4.1213125  Z M 3.85714285714286 1.5  L 7.28571428571429 1.5  L 7.28571428571429 4  L 3.85714285714286 4  L 3.85714285714286 1.5  Z M 10.7142857142857 12.3125  C 10.7142857142857 12.4160533905933  10.6423314776514 12.5  10.5535714285714 12.5  L 1.44642857142857 12.5  C 1.35766852234862 12.5  1.28571428571429 12.4160533905933  1.28571428571429 12.3125  L 1.28571428571429 1.6875  C 1.28571428571429 1.58394660940673  1.35766852234862 1.5  1.44642857142857 1.5  L 2.57142857142857 1.5  L 2.57142857142857 4.75  C 2.57142857142857 5.16421875  2.85924107142857 5.5  3.21428571428571 5.5  L 7.92857142857143 5.5  C 8.28361607142857 5.5  8.57142857142857 5.16421875  8.57142857142857 4.75  L 8.57142857142857 1.6213125  L 10.6672232142857 4.06640625  C 10.6973618184178 4.10157391061397  10.714290819557 4.14926962896288  10.7142857142857 4.199  L 10.7142857142857 12.3125  Z M 8.35714285714285 9  C 8.35714285714285 7.48365625  7.29972321428572 6.25  6 6.25  C 4.70027678571428 6.25  3.64285714285714 7.48365625  3.64285714285714 9  C 3.64285714285714 10.51634375  4.70027678571428 11.75  6 11.75  C 7.29972321428572 11.75  8.35714285714285 10.51634375  8.35714285714285 9  Z M 7.07142857142857 9  C 7.07142857142857 9.68925  6.59078571428571 10.25  6 10.25  C 5.40921428571429 10.25  4.92857142857143 9.68925  4.92857142857143 9  C 4.92857142857143 8.31075  5.40921428571429 7.75000000000001  6 7.75000000000001  C 6.59078571428571 7.75000000000001  7.07142857142857 8.31075  7.07142857142857 9  Z " fill-rule="nonzero" fill="#ffffff" stroke="none" transform="matrix(1 0 0 1 688 318 )" />
  </g>
</svg>