<?xml version="1.0" encoding="utf-8"?>
<svg version="1.1" xmlns:xlink="http://www.w3.org/1999/xlink" width="15px" height="12px" xmlns="http://www.w3.org/2000/svg">
  <g transform="matrix(1 0 0 1 -1264 -457 )">
    <path d="M 10.4166666666667 8.13657407407407  C 10.4166666666667 8.08796296296296  10.4375 8.04166666666667  10.4765625 8.00694444444444  L 11.3098958333333 7.2662037037037  C 11.4401041666667 7.15046296296296  11.6666666666667 7.23148148148148  11.6666666666667 7.39814814814815  L 11.6666666666667 10.7638888888889  C 11.6666666666667 11.3773148148148  11.1067708333333 11.875  10.4166666666667 11.875  L 1.25 11.875  C 0.559895833333333 11.875  0 11.3773148148148  0 10.7638888888889  L 0 2.61574074074074  C 0 2.00231481481482  0.559895833333333 1.50462962962963  1.25 1.50462962962963  L 8.37239583333334 1.50462962962963  C 8.55729166666667 1.50462962962963  8.65104166666667 1.7037037037037  8.52083333333333 1.82175925925926  L 7.6875 2.5625  C 7.6484375 2.59722222222222  7.59635416666667 2.61574074074074  7.5390625 2.61574074074074  L 1.25 2.61574074074074  L 1.25 10.7638888888889  L 10.4166666666667 10.7638888888889  L 10.4166666666667 8.13657407407407  Z M 14.5520833333333 1.41898148148148  C 15.1484375 1.94907407407407  15.1484375 2.80787037037037  14.5546875 3.33564814814815  L 7.71614583333333 9.41435185185185  L 5.36197916666667 9.64583333333333  C 4.6796875 9.71296296296296  4.09895833333333 9.20138888888889  4.17447916666667 8.59027777777778  L 4.43489583333333 6.49768518518518  L 11.2734375 0.418981481481482  C 11.8697916666667 -0.111111111111112  12.8333333333333 -0.111111111111112  13.4270833333333 0.418981481481482  L 14.5520833333333 1.41898148148148  Z M 7.140625 8.35185185185185  L 11.9817708333333 4.05092592592593  L 10.46875 2.70601851851852  L 5.63020833333333 7.00925925925926  L 5.44010416666667 8.52083333333333  L 7.140625 8.35185185185185  Z M 13.671875 2.55092592592593  C 13.7760416666667 2.4537037037037  13.7760416666667 2.30092592592593  13.6692708333333 2.20601851851852  L 12.5442708333333 1.20601851851852  C 12.4375 1.11111111111111  12.2630208333333 1.11111111111111  12.1588541666667 1.20601851851852  L 11.3541666666667 1.9212962962963  L 12.8671875 3.2662037037037  L 13.671875 2.55092592592593  Z " fill-rule="nonzero" fill="#2b97be" stroke="none" transform="matrix(1 0 0 1 1264 457 )" />
  </g>
</svg>