<?xml version="1.0" encoding="utf-8"?>
<svg version="1.1" xmlns:xlink="http://www.w3.org/1999/xlink" width="12px" height="13px" xmlns="http://www.w3.org/2000/svg">
  <g transform="matrix(1 0 0 1 -1281 -456 )">
    <path d="M 4.79403409090909 4.46875000003717  C 4.97053444602273 4.46875000003717  5.11363636363636 4.60517382816158  5.11363636363636 4.77343750003585  L 5.11363636363636 10.2578125000119  C 5.11363636363636 10.4260761718862  4.97053444602273 10.5625000000106  4.79403409090909 10.5625000000106  L 4.15482954545455 10.5625000000106  C 3.97832919034091 10.5625000000106  3.83522727272727 10.4260761718862  3.83522727272727 10.2578125000119  L 3.83522727272727 4.77343750003585  C 3.83522727272727 4.60517382816158  3.97832919034091 4.46875000003717  4.15482954545455 4.46875000003717  L 4.79403409090909 4.46875000003717  Z M 8.09659090909091 4.77343750003585  C 8.09659090909091 4.60517382816158  7.95348899147728 4.46875000003717  7.77698863636364 4.46875000003717  L 7.13778409090909 4.46875000003717  C 6.96128373579545 4.46875000003717  6.81818181818182 4.60517382816158  6.81818181818182 4.77343750003585  L 6.81818181818182 10.2578125000119  C 6.81818181818182 10.4260761718862  6.96128373579545 10.5625000000106  7.13778409090909 10.5625000000106  L 7.77698863636364 10.5625000000106  C 7.95348899147728 10.5625000000106  8.09659090909091 10.4260761718862  8.09659090909091 10.2578125000119  L 8.09659090909091 4.77343750003585  Z M 9.31078657670454 2.03125000004779  L 11.2926136363636 2.03125000004779  C 11.6456409801136 2.03125000004779  11.9318181818182 2.30407226567161  11.9318181818182 2.64062500004514  L 11.9318181818182 2.94531250004381  C 11.9318181818182 3.11357617191808  11.7887162642045 3.25000000004248  11.6122159090909 3.25000000004248  L 11.0795454545455 3.25000000004248  L 11.0795454545455 11.7812500000053  C 11.0795454545455 12.4543554687524  10.5071910511364 13  9.80113636363636 13  L 2.13068181818182 13  C 1.42462713068182 13  0.852272727272727 12.4543554687524  0.852272727272727 11.7812500000053  L 0.852272727272727 3.25000000004248  L 0.319602272727273 3.25000000004248  C 0.143101917613637 3.25000000004248  0 3.11357617191808  0 2.94531250004381  L 0 2.64062500004514  C 0 2.30407226567161  0.286177201704545 2.03125000004779  0.639204545454545 2.03125000004779  L 2.62103160511364 2.03125000004779  L 3.52705078125 0.591703125054065  C 3.75809202370536 0.224608380802746  4.17422682458511 0  4.62328657670454 0  L 7.30855823863637 0  C 7.75761799075579 0  8.17375279163555 0.224608380802746  8.40479403409091 0.591703125054065  L 9.31078657670454 2.03125000004779  Z M 4.5767578125 1.29271289067601  L 4.11192294034091 2.03125000004779  L 7.819921875 2.03125000004779  L 7.35511363636364 1.29271289067601  C 7.32623348105671 1.24682604764459  7.27421663094675 1.21874948520227  7.21808416193182 1.21875000005134  L 4.71378728693182 1.21875000005134  C 4.65765481791688 1.21874948520227  4.60563796780692 1.2468260476446  4.5767578125 1.29271289067601  Z M 9.80113636363636 11.628906250006  L 9.80113636363636 3.25000000004248  L 2.13068181818182 3.25000000004248  L 2.13068181818182 11.628906250006  C 2.13068181818182 11.7130433798626  2.20222722392619 11.7812500000053  2.29048295454545 11.7812500000053  L 9.64133522727273 11.7812500000053  C 9.729590957892 11.7812500000053  9.80113636363636 11.7130433798626  9.80113636363636 11.628906250006  Z " fill-rule="nonzero" fill="#f85d66" stroke="none" transform="matrix(1 0 0 1 1281 456 )" />
  </g>
</svg>