<?xml version="1.0" encoding="utf-8"?>
<svg version="1.1" xmlns:xlink="http://www.w3.org/1999/xlink" width="10px" height="14px" xmlns="http://www.w3.org/2000/svg">
  <g transform="matrix(1 0 0 1 -900 -489 )">
    <path d="M 10 4.1213125  C 9.99999851411515 3.72348856131555  9.88711521063296 3.34195921464193  9.68618303571428 3.06065625  L 7.81381696428571 0.439343749999997  C 7.61288627525577 0.15803870511385  7.34036531334604 0  7.05620535714286 0  L 1.07142857142857 0  C 0.4796875 0  0 0.6715625  0 1.5  L 0 12.5  C 0 13.3284375  0.4796875 14  1.07142857142857 14  L 8.92857142857143 14  C 9.5203125 14  10 13.3284375  10 12.5  L 10 4.1213125  Z M 3.21428571428571 1.5  L 6.07142857142857 1.5  L 6.07142857142857 4  L 3.21428571428571 4  L 3.21428571428571 1.5  Z M 8.92857142857143 12.3125  C 8.92857142857143 12.4160533905933  8.86860956470948 12.5  8.79464285714286 12.5  L 1.20535714285714 12.5  C 1.13139043529052 12.5  1.07142857142857 12.4160533905933  1 12.3125  L 1 1.6875  C 1.07142857142857 1.58394660940673  1.13139043529052 1.5  1.20535714285714 1.5  L 2.14285714285714 1.5  L 2.14285714285714 4.75  C 2.14285714285714 5.16421875  2.38270089285714 5.5  2.67857142857143 5.5  L 6.60714285714286 5.5  C 6.90301339285714 5.5  7.14285714285714 5.16421875  7.14285714285714 4.75  L 7.14285714285714 1.6213125  L 8.88935267857142 4.06640625  C 8.91446818201487 4.10157391061397  8.92857568296416 4.14926962896288  8.92857142857143 4.199  L 8.92857142857143 12.3125  Z M 6.96428571428571 9  C 6.96428571428571 7.48365625  6.08310267857143 6.25  5 6.25  C 3.91689732142857 6.25  3.03571428571429 7.48365625  3.03571428571429 9  C 3.03571428571429 10.51634375  3.91689732142857 11.75  5 11.75  C 6.08310267857143 11.75  6.96428571428571 10.51634375  6.96428571428571 9  Z M 5.89285714285714 9  C 5.89285714285714 9.68925  5.49232142857143 10.25  5 10.25  C 4.50767857142857 10.25  4.10714285714286 9.68925  4.10714285714286 9  C 4.10714285714286 8.31075  4.50767857142857 7.75000000000001  5 7.75000000000001  C 5.49232142857143 7.75000000000001  5.89285714285714 8.31075  5.89285714285714 9  Z " fill-rule="nonzero" fill="#ffffff" stroke="none" transform="matrix(1 0 0 1 900 489 )" />
  </g>
</svg>