<?xml version="1.0" encoding="utf-8"?>
<svg version="1.1" xmlns:xlink="http://www.w3.org/1999/xlink" width="13px" height="12px" xmlns="http://www.w3.org/2000/svg">
  <g transform="matrix(1 0 0 1 -989 -489 )">
    <path d="M 13 6  C 13 2.68548387096774  10.0907258064516 0  6.5 0  C 2.90927419354839 0  0 2.68548387096774  0 6  C 0 9.31451612903226  2.90927419354839 12  6.5 12  C 10.0907258064516 12  13 9.31451612903226  13 6  Z M 11.741935483871 6  C 11.741935483871 8.67338709677419  9.39616935483871 10.8387096774194  6.5 10.8387096774194  C 3.60383064516129 10.8387096774194  1.25806451612903 8.67338709677419  1.25806451612903 6  C 1.25806451612903 3.32661290322581  3.60383064516129 1.16129032258065  6.5 1.16129032258065  C 9.39616935483871 1.16129032258065  11.741935483871 3.32661290322581  11.741935483871 6  Z M 9.16814516129033 4.08387096774194  C 9.29133064516129 4.19758064516129  9.29133064516129 4.38145161290322  9.16814516129032 4.49516129032258  L 7.53790322580645 6  L 9.16814516129032 7.50483870967742  C 9.29133064516129 7.61854838709678  9.29133064516129 7.80241935483871  9.16814516129032 7.91612903225807  L 8.57580645161291 8.46290322580645  C 8.45262096774193 8.57661290322581  8.25342741935484 8.57661290322581  8.13024193548387 8.46290322580645  L 6.5 6.95806451612903  L 4.86975806451613 8.46290322580645  C 4.74657258064516 8.57661290322581  4.54737903225807 8.57661290322581  4.42419354838709 8.46290322580645  L 3.83185483870968 7.91612903225807  C 3.70866935483871 7.80241935483871  3.70866935483871 7.61854838709678  3.83185483870968 7.50483870967742  L 5.46209677419355 6  L 3.83185483870968 4.49516129032258  C 3.70866935483871 4.38145161290322  3.70866935483871 4.19758064516129  3.83185483870968 4.08387096774193  L 4.4241935483871 3.53709677419355  C 4.54737903225807 3.4233870967742  4.74657258064516 3.4233870967742  4.86975806451613 3.53709677419355  L 6.5 5.04193548387097  L 8.13024193548387 3.53709677419355  C 8.25342741935484 3.4233870967742  8.45262096774193 3.4233870967742  8.57580645161291 3.53709677419355  L 9.16814516129033 4.08387096774194  Z " fill-rule="nonzero" fill="#ffffff" stroke="none" transform="matrix(1 0 0 1 989 489 )" />
  </g>
</svg>