<?xml version="1.0" encoding="utf-8"?>
<svg version="1.1" xmlns:xlink="http://www.w3.org/1999/xlink" width="10px" height="10px" xmlns="http://www.w3.org/2000/svg">
  <g transform="matrix(1 0 0 1 -1043 -244 )">
    <path d="M 10 1.06534090909091  C 10 0.477183948863636  9.580078125 0  9.0625 0  L 0.9375 0  C 0.419921875 0  0 0.477183948863636  0 1.06534090909091  L 0 8.87784090909091  C 0 9.46599786931818  0.419921875 9.94318181818182  0.9375 9.94318181818182  L 9.0625 9.94318181818182  C 9.580078125 9.94318181818182  10 9.46599786931818  10 8.87784090909091  L 10 1.06534090909091  Z M 9.0625 1.19850852272727  L 9.0625 8.74467329545455  C 9.0625 8.81791548295455  9.009765625 8.87784090909091  8.9453125 8.87784090909091  L 1.0546875 8.87784090909091  C 0.990234375 8.87784090909091  0.9375 8.81791548295455  0.9375 8.74467329545455  L 0.9375 1.19850852272727  C 0.9375 1.12526633522727  0.990234375 1.06534090909091  1.0546875 1.06534090909091  L 8.9453125 1.06534090909091  C 9.009765625 1.06534090909091  9.0625 1.12526633522727  9.0625 1.19850852272727  Z M 6.962890625 3.23597301136364  C 7.0546875 3.33806818181818  7.0546875 3.50452769886364  6.962890625 3.60884232954545  L 5.763671875 4.97159090909091  L 6.962890625 6.33433948863636  C 7.052734375 6.43643465909091  7.052734375 6.60289417613636  6.962890625 6.70720880681818  L 6.52734375 7.2021484375  C 6.4375 7.30424360795455  6.291015625 7.30424360795455  6.19921875 7.2021484375  L 5 5.83939985795455  L 3.80078125 7.2021484375  C 3.7109375 7.30424360795455  3.564453125 7.30424360795455  3.47265625 7.2021484375  L 3.037109375 6.70720880681818  C 2.947265625 6.60511363636364  2.947265625 6.43865411931818  3.037109375 6.33433948863636  L 4.236328125 4.97159090909091  L 3.037109375 3.60884232954545  C 2.947265625 3.50674715909091  2.947265625 3.34028764204545  3.037109375 3.23597301136364  L 3.47265625 2.74103338068182  C 3.5625 2.63893821022727  3.708984375 2.63893821022727  3.80078125 2.74103338068182  L 5 4.10378196022727  L 6.19921875 2.74103338068182  C 6.2890625 2.63893821022727  6.435546875 2.63893821022727  6.52734375 2.74103338068182  L 6.962890625 3.23597301136364  Z " fill-rule="nonzero" fill="#2b97be" stroke="none" transform="matrix(1 0 0 1 1043 244 )" />
  </g>
</svg>