<?xml version="1.0" encoding="utf-8"?>
<svg version="1.1" xmlns:xlink="http://www.w3.org/1999/xlink" width="8px" height="4px" xmlns="http://www.w3.org/2000/svg">
  <g transform="matrix(1 0 0 1 -975 -224 )">
    <path d="M 8 0.426136363636364  C 8 0.190873579545455  7.6640625 0  7.25 0  L 0.75 0  C 0.3359375 0  0 0.190873579545455  0 0.426136363636364  L 0 3.55113636363636  C 0 3.78639914772727  0.3359375 3.97727272727273  0.75 3.97727272727273  L 7.25 3.97727272727273  C 7.6640625 3.97727272727273  8 3.78639914772727  8 3.55113636363636  L 8 0.426136363636364  Z M 7.25 0.479403409090909  L 7.25 3.49786931818182  C 7.25 3.52716619318182  7.2078125 3.55113636363636  7.15625 3.55113636363636  L 0.84375 3.55113636363636  C 0.7921875 3.55113636363636  0.75 3.52716619318182  0.75 3.49786931818182  L 0.75 0.479403409090909  C 0.75 0.450106534090909  0.7921875 0.426136363636364  0.84375 0.426136363636364  L 7.15625 0.426136363636364  C 7.2078125 0.426136363636364  7.25 0.450106534090909  7.25 0.479403409090909  Z M 5.5703125 1.29438920454545  C 5.64375 1.33522727272727  5.64375 1.40181107954545  5.5703125 1.44353693181818  L 4.6109375 1.98863636363636  L 5.5703125 2.53373579545455  C 5.6421875 2.57457386363636  5.6421875 2.64115767045455  5.5703125 2.68288352272727  L 5.221875 2.880859375  C 5.15 2.92169744318182  5.0328125 2.92169744318182  4.959375 2.880859375  L 4 2.33575994318182  L 3.040625 2.880859375  C 2.96875 2.92169744318182  2.8515625 2.92169744318182  2.778125 2.880859375  L 2.4296875 2.68288352272727  C 2.3578125 2.64204545454545  2.3578125 2.57546164772727  2.4296875 2.53373579545455  L 3.3890625 1.98863636363636  L 2.4296875 1.44353693181818  C 2.3578125 1.40269886363636  2.3578125 1.33611505681818  2.4296875 1.29438920454545  L 2.778125 1.09641335227273  C 2.85 1.05557528409091  2.9671875 1.05557528409091  3.040625 1.09641335227273  L 4 1.64151278409091  L 4.959375 1.09641335227273  C 5.03125 1.05557528409091  5.1484375 1.05557528409091  5.221875 1.09641335227273  L 5.5703125 1.29438920454545  Z " fill-rule="nonzero" fill="#2b97be" stroke="none" transform="matrix(1 0 0 1 975 224 )" />
  </g>
</svg>