<?xml version="1.0" encoding="utf-8"?>
<svg version="1.1" xmlns:xlink="http://www.w3.org/1999/xlink" width="15px" height="15px" xmlns="http://www.w3.org/2000/svg">
  <g transform="matrix(1 0 0 1 -278 -356 )">
    <path d="M 15 7.5  C 15 3.35685483870968  11.6431451612903 0  7.5 0  C 3.35685483870968 0  0 3.35685483870968  0 7.5  C 0 11.6431451612903  3.35685483870968 15  7.5 15  C 11.6431451612903 15  15 11.6431451612903  15 7.5  Z M 11.8548387096774 6.65322580645162  L 11.8548387096774 8.34677419354838  C 11.8548387096774 8.54637096774194  11.6915322580645 8.70967741935485  11.491935483871 8.70967741935485  L 8.70967741935484 8.70967741935485  L 8.70967741935484 11.491935483871  C 8.70967741935484 11.6915322580645  8.54637096774194 11.8548387096774  8.34677419354838 11.8548387096774  L 6.65322580645162 11.8548387096774  C 6.45362903225806 11.8548387096774  6.29032258064516 11.6915322580645  6.29032258064516 11.491935483871  L 6.29032258064516 8.70967741935485  L 3.50806451612903 8.70967741935485  C 3.30846774193548 8.70967741935485  3.14516129032259 8.54637096774194  3.14516129032259 8.34677419354838  L 3.14516129032259 6.65322580645162  C 3.14516129032259 6.45362903225806  3.30846774193548 6.29032258064517  3.50806451612903 6.29032258064517  L 6.29032258064516 6.29032258064517  L 6.29032258064516 3.50806451612903  C 6.29032258064516 3.30846774193548  6.45362903225806 3.14516129032259  6.65322580645162 3.14516129032259  L 8.34677419354838 3.14516129032259  C 8.54637096774194 3.14516129032259  8.70967741935484 3.30846774193548  8.70967741935484 3.50806451612903  L 8.70967741935484 6.29032258064517  L 11.491935483871 6.29032258064517  C 11.6915322580645 6.29032258064517  11.8548387096774 6.45362903225806  11.8548387096774 6.65322580645162  Z " fill-rule="nonzero" fill="#125578" stroke="none" transform="matrix(1 0 0 1 278 356 )" />
  </g>
</svg>