<?xml version="1.0" encoding="utf-8"?>
<svg version="1.1" xmlns:xlink="http://www.w3.org/1999/xlink" width="10px" height="12px" xmlns="http://www.w3.org/2000/svg">
  <g transform="matrix(1 0 0 1 -894 -409 )">
    <path d="M 9.87630208333333 9.778125  C 9.95876736111111 9.896875  10 10.0375  10 10.2  L 10 11.4  C 10 11.5625  9.95876736111111 11.703125  9.87630208333333 11.821875  C 9.79383680555556 11.940625  9.69618055555556 12  9.58333333333333 12  L 0.416666666666667 12  C 0.303819444444444 12  0.206163194444444 11.940625  0.123697916666667 11.821875  C 0.0412326388888889 11.703125  0 11.5625  0 11.4  L 0 10.2  C 0 10.0375  0.0412326388888889 9.896875  0.123697916666667 9.778125  C 0.206163194444444 9.659375  0.303819444444444 9.6  0.416666666666667 9.6  L 9.58333333333333 9.6  C 9.69618055555556 9.6  9.79383680555556 9.659375  9.87630208333333 9.778125  Z M 9.87630208333333 4.978125  C 9.95876736111111 5.096875  10 5.2375  10 5.4  L 10 6.6  C 10 6.7625  9.95876736111111 6.903125  9.87630208333333 7.021875  C 9.79383680555556 7.140625  9.69618055555556 7.2  9.58333333333333 7.2  L 0.416666666666667 7.2  C 0.303819444444444 7.2  0.206163194444444 7.140625  0.123697916666667 7.021875  C 0.0412326388888889 6.903125  0 6.7625  0 6.6  L 0 5.4  C 0 5.2375  0.0412326388888889 5.096875  0.123697916666667 4.978125  C 0.206163194444444 4.859375  0.303819444444444 4.8  0.416666666666667 4.8  L 9.58333333333333 4.8  C 9.69618055555556 4.8  9.79383680555556 4.859375  9.87630208333333 4.978125  Z M 9.87630208333333 0.178125000000001  C 9.95876736111111 0.296874999999999  10 0.437499999999999  10 0.600000000000001  L 10 1.8  C 10 1.9625  9.95876736111111 2.103125  9.87630208333333 2.221875  C 9.79383680555556 2.340625  9.69618055555556 2.4  9.58333333333333 2.4  L 0.416666666666667 2.4  C 0.303819444444444 2.4  0.206163194444444 2.340625  0.123697916666667 2.221875  C 0.0412326388888889 2.103125  0 1.9625  0 1.8  L 0 0.600000000000001  C 0 0.437499999999999  0.0412326388888889 0.296874999999999  0.123697916666667 0.178125000000001  C 0.206163194444444 0.0593749999999993  0.303819444444444 0  0.416666666666667 0  L 9.58333333333333 0  C 9.69618055555556 0  9.79383680555556 0.0593749999999993  9.87630208333333 0.178125000000001  Z " fill-rule="nonzero" fill="#2b97be" stroke="none" transform="matrix(1 0 0 1 894 409 )" />
  </g>
</svg>