<?xml version="1.0" encoding="utf-8"?>
<svg version="1.1" xmlns:xlink="http://www.w3.org/1999/xlink" width="11px" height="13px" xmlns="http://www.w3.org/2000/svg">
  <g transform="matrix(1 0 0 1 -1299 -700 )">
    <path d="M 4.39453125 4.46875000003718  C 4.55632324218755 4.46875000003718  4.6875 4.60517382816158  4.6875 4.77343750003587  L 4.6875 10.2578125000119  C 4.6875 10.4260761718862  4.55632324218755 10.5625000000106  4.39453125 10.5625000000106  L 3.80859375 10.5625000000106  C 3.64680175781245 10.5625000000106  3.515625 10.4260761718862  3.515625 10.2578125000119  L 3.515625 6.77056277056278  L 3.515625 4.77343750003587  C 3.515625 4.60517382816158  3.64680175781245 4.46875000003718  3.80859375 4.46875000003718  L 4.39453125 4.46875000003718  Z M 7.421875 4.77343750003587  C 7.421875 4.60517382816158  7.29069824218755 4.46875000003718  7.12890625 4.46875000003718  L 6.54296875 4.46875000003718  C 6.38117675781245 4.46875000003718  6.25 4.60517382816158  6.25 4.77343750003587  L 6.25 10.2578125000119  C 6.25 10.4260761718862  6.38117675781245 10.5625000000106  6.54296875 10.5625000000106  L 7.12890625 10.5625000000106  C 7.29069824218755 10.5625000000106  7.421875 10.4260761718862  7.421875 10.2578125000119  L 7.421875 4.77343750003587  Z M 8.53488769531259 2.03125000004781  L 10.3515625 2.03125000004781  C 10.6751708984375 2.03125000004781  10.9375 2.30407226567161  10.9375 2.64062500004513  L 10.9375 2.94531250004383  C 10.9375 3.11357617191806  10.8063232421875 3.25000000004246  10.64453125 3.25000000004246  L 10.15625 3.25000000004246  L 10.15625 11.7812500000053  C 10.15625 12.4543554687524  9.631591796875 13  8.984375 13  L 6.18181818181824 13  L 1.953125 13  C 1.305908203125 13  0.78125 12.4543554687524  0.78125 11.7812500000053  L 0.78125 3.25000000004246  L 0.29296875 3.25000000004246  C 0.131176757812455 3.25000000004246  0 3.11357617191806  0 2.94531250004383  L 0 2.64062500004513  C 0 2.30407226567161  0.2623291015625 2.03125000004781  0.5859375 2.03125000004781  L 2.40261230468741 2.03125000004781  L 3.23312988281259 0.591703125054039  C 3.44491768839657 0.224608380802749  3.82637458920294 0  4.23801269531259 0  L 6.69951171875005 0  C 7.11114982485947 0  7.49260672566584 0.224608380802749  7.70439453125005 0.591703125054039  L 8.53488769531259 2.03125000004781  Z M 4.19536132812505 1.292712890676  L 3.76926269531259 2.03125000004781  L 7.16826171875005 2.03125000004781  L 6.7421875 1.292712890676  C 6.71571402430209 1.24682604764462  6.66803191170129 1.2187494852023  6.6165771484375 1.21875000005133  L 4.32097167968755 1.21875000005133  C 4.26951691642375 1.2187494852023  4.22183480382296 1.24682604764462  4.19536132812505 1.292712890676  Z M 8.984375 11.628906250006  L 8.984375 3.25000000004246  L 1.953125 3.25000000004246  L 1.953125 11.628906250006  C 1.953125 11.7130433798627  2.0187082885991 11.7812500000053  2.099609375 11.7812500000053  L 8.837890625 11.7812500000053  C 8.9187917114009 11.7812500000053  8.984375 11.7130433798627  8.984375 11.628906250006  Z " fill-rule="nonzero" fill="#f85d66" stroke="none" transform="matrix(1 0 0 1 1299 700 )" />
  </g>
</svg>