<?xml version="1.0" encoding="utf-8"?>
<svg version="1.1" xmlns:xlink="http://www.w3.org/1999/xlink" width="11px" height="13px" xmlns="http://www.w3.org/2000/svg">
  <g transform="matrix(1 0 0 1 -1299 -730 )">
    <path d="M 4.39453125 4.46875000003717  C 4.5563232421875 4.46875000003717  4.6875 4.60517382816158  4.6875 4.77343750003585  L 4.6875 10.2578125000119  C 4.6875 10.4260761718862  4.5563232421875 10.5625000000106  4.39453125 10.5625000000106  L 3.80859375 10.5625000000106  C 3.6468017578125 10.5625000000106  3.515625 10.4260761718862  3.515625 10.2578125000119  L 3.515625 4.77343750003585  C 3.515625 4.60517382816158  3.6468017578125 4.46875000003717  3.80859375 4.46875000003717  L 4.39453125 4.46875000003717  Z M 7.421875 4.77343750003585  C 7.421875 4.60517382816158  7.2906982421875 4.46875000003717  7.12890625 4.46875000003717  L 6.54296875 4.46875000003717  C 6.3811767578125 4.46875000003717  6.25 4.60517382816158  6.25 4.77343750003585  L 6.25 10.2578125000119  C 6.25 10.4260761718862  6.3811767578125 10.5625000000106  6.54296875 10.5625000000106  L 7.12890625 10.5625000000106  C 7.2906982421875 10.5625000000106  7.421875 10.4260761718862  7.421875 10.2578125000119  L 7.421875 4.77343750003585  Z M 8.5348876953125 2.03125000004779  L 10.3515625 2.03125000004779  C 10.6751708984375 2.03125000004779  10.9375 2.30407226567161  10.9375 2.64062500004514  L 10.9375 2.94531250004381  C 10.9375 3.11357617191808  10.8063232421875 3.25000000004248  10.64453125 3.25000000004248  L 10.15625 3.25000000004248  L 10.15625 11.7812500000053  C 10.15625 12.4543554687524  9.631591796875 13  8.984375 13  L 1.953125 13  C 1.305908203125 13  0.78125 12.4543554687524  0.78125 11.7812500000053  L 0.78125 3.25000000004248  L 0.29296875 3.25000000004248  C 0.131176757812501 3.25000000004248  0 3.11357617191808  0 2.94531250004381  L 0 2.64062500004514  C 0 2.30407226567161  0.2623291015625 2.03125000004779  0.5859375 2.03125000004779  L 2.4026123046875 2.03125000004779  L 3.2331298828125 0.591703125054065  C 3.44491768839658 0.224608380802746  3.82637458920302 0  4.2380126953125 0  L 6.69951171875 0  C 7.11114982485947 0  7.49260672566592 0.224608380802746  7.70439453125 0.591703125054065  L 8.5348876953125 2.03125000004779  Z M 4.195361328125 1.29271289067601  L 3.7692626953125 2.03125000004779  L 7.16826171875 2.03125000004779  L 6.7421875 1.29271289067601  C 6.71571402430199 1.24682604764459  6.66803191170118 1.21874948520227  6.6165771484375 1.21875000005134  L 4.3209716796875 1.21875000005134  C 4.26951691642381 1.21874948520227  4.22183480382301 1.2468260476446  4.195361328125 1.29271289067601  Z M 8.984375 11.628906250006  L 8.984375 3.25000000004248  L 1.953125 3.25000000004248  L 1.953125 11.628906250006  C 1.953125 11.7130433798626  2.018708288599 11.7812500000053  2.099609375 11.7812500000053  L 8.837890625 11.7812500000053  C 8.918791711401 11.7812500000053  8.984375 11.7130433798626  8.984375 11.628906250006  Z " fill-rule="nonzero" fill="#f85d66" stroke="none" transform="matrix(1 0 0 1 1299 730 )" />
  </g>
</svg>