<?xml version="1.0" encoding="utf-8"?>
<svg version="1.1" xmlns:xlink="http://www.w3.org/1999/xlink" width="14px" height="12px" xmlns="http://www.w3.org/2000/svg">
  <g transform="matrix(1 0 0 1 -1280 -701 )">
    <path d="M 9.72222222222222 8.13657407407407  C 9.72222222222222 8.08796296296296  9.74166666666667 8.04166666666667  9.778125 8.00694444444444  L 10.5559027777778 7.2662037037037  C 10.6774305555556 7.15046296296296  10.8888888888889 7.23148148148148  10.8888888888889 7.39814814814815  L 10.8888888888889 10.7638888888889  C 10.8888888888889 11.3773148148148  10.3663194444444 11.875  9.72222222222222 11.875  L 1.16666666666667 11.875  C 0.522569444444444 11.875  0 11.3773148148148  0 10.7638888888889  L 0 2.61574074074074  C 0 2.00231481481482  0.522569444444444 1.50462962962963  1.16666666666667 1.50462962962963  L 7.81423611111111 1.50462962962963  C 7.98680555555556 1.50462962962963  8.07430555555556 1.7037037037037  7.95277777777778 1.82175925925926  L 7.175 2.5625  C 7.13854166666667 2.59722222222222  7.08993055555556 2.61574074074074  7.03645833333333 2.61574074074074  L 1.16666666666667 2.61574074074074  L 1.16666666666667 10.7638888888889  L 9.72222222222222 10.7638888888889  L 9.72222222222222 8.13657407407407  Z M 13.5819444444444 1.41898148148148  C 14.1385416666667 1.94907407407407  14.1385416666667 2.80787037037037  13.584375 3.33564814814815  L 7.20173611111111 9.41435185185185  L 5.00451388888889 9.64583333333333  C 4.36770833333334 9.71296296296296  3.82569444444444 9.20138888888889  3.89618055555556 8.59027777777778  L 4.13923611111111 6.49768518518518  L 10.521875 0.418981481481482  C 11.0784722222222 -0.111111111111112  11.9777777777778 -0.111111111111112  12.5319444444444 0.418981481481482  L 13.5819444444444 1.41898148148148  Z M 6.66458333333333 8.35185185185185  L 11.1829861111111 4.05092592592593  L 9.77083333333333 2.70601851851852  L 5.25486111111111 7.00925925925926  L 5.07743055555556 8.52083333333333  L 6.66458333333333 8.35185185185185  Z M 12.7604166666667 2.55092592592593  C 12.8576388888889 2.4537037037037  12.8576388888889 2.30092592592593  12.7579861111111 2.20601851851852  L 11.7079861111111 1.20601851851852  C 11.6083333333333 1.11111111111111  11.4454861111111 1.11111111111111  11.3482638888889 1.20601851851852  L 10.5972222222222 1.9212962962963  L 12.009375 3.2662037037037  L 12.7604166666667 2.55092592592593  Z " fill-rule="nonzero" fill="#2b97be" stroke="none" transform="matrix(1 0 0 1 1280 701 )" />
  </g>
</svg>