<?xml version="1.0" encoding="utf-8"?>
<svg version="1.1" xmlns:xlink="http://www.w3.org/1999/xlink" width="16px" height="16px" xmlns="http://www.w3.org/2000/svg">
  <g transform="matrix(1 0 0 1 -1299 -355 )">
    <path d="M 16 7.5  C 16 6.6715625  15.3284375 6  14.5 6  L 14 6  L 14 2.56065625  C 13.9999989600121 2.3617519377381  13.9209867141183 2.1709939618074  13.78034375 2.03034375  L 11.96965625 0.219656249999998  C 11.8290060381926 0.079013285881656  11.6382480622619 0  11.43934375 0  L 2.75 0  C 2.33578125 0  2 0.33578125  2 0.75  L 2 6  L 1.5 6  C 0.6715625 6  0 6.6715625  0 7.5  L 0 11.625  C 0 11.83209375  0.167906249999996 12  0.375 12  L 2 12  L 2 15.25  C 2 15.66421875  2.33578125 16  2.75 16  L 13.25 16  C 13.66421875 16  14 15.66421875  14 15.25  L 14 12  L 15.625 12  C 15.83209375 12  16 11.83209375  16 11.625  L 16 7.5  Z M 12 11  L 12 14  L 4 14  L 4 11  L 12 11  Z M 12 7  L 4 7  L 4 2  L 10 2  L 10 3.25  C 10 3.6625  10.3375 4  10.75 4  L 12 4  L 12 7  Z M 14.25 8.5  C 14.25 8.9141875  13.9141875 9.25  13.5 9.25  C 13.0858125 9.25  12.75 8.9141875  12.75 8.5  C 12.75 8.0858125  13.0858125 7.75  13.5 7.75  C 13.9141875 7.75  14.25 8.0858125  14.25 8.5  Z " fill-rule="nonzero" fill="#495058" stroke="none" transform="matrix(1 0 0 1 1299 355 )" />
  </g>
</svg>