<?xml version="1.0" encoding="utf-8"?>
<svg version="1.1" xmlns:xlink="http://www.w3.org/1999/xlink" width="16px" height="16px" xmlns="http://www.w3.org/2000/svg">
  <g transform="matrix(1 0 0 1 -1223 -355 )">
    <path d="M 11.4285714285714 3.42857142857143  L 15.1428571428571 3.42857142857143  C 15.3809523809524 3.42857142857143  15.5833333333333 3.51190476190476  15.75 3.67857142857143  C 15.9166666666667 3.84523809523809  16 4.04761904761905  16 4.28571428571429  L 16 15.1428571428571  C 16 15.3809523809524  15.9166666666667 15.5833333333333  15.75 15.75  C 15.5833333333333 15.9166666666667  15.3809523809524 16  15.1428571428571 16  L 6.57142857142857 16  C 6.33333333333333 16  6.13095238095238 15.9166666666667  5.96428571428571 15.75  C 5.79761904761905 15.5833333333333  5.71428571428571 15.3809523809524  5.71428571428571 15.1428571428571  L 5.71428571428571 12.5714285714286  L 0.857142857142857 12.5714285714286  C 0.619047619047619 12.5714285714286  0.416666666666667 12.4880952380952  0.25 12.3214285714286  C 0.0833333333333333 12.1547619047619  0 11.952380952381  0 11.7142857142857  L 0 5.71428571428571  C 0 5.47619047619048  0.0595238095238095 5.21428571428571  0.178571428571429 4.92857142857143  C 0.297619047619048 4.64285714285714  0.440476190476191 4.41666666666667  0.607142857142857 4.25  L 4.25 0.607142857142858  C 4.41666666666667 0.44047619047619  4.64285714285714 0.297619047619047  4.92857142857143 0.178571428571429  C 5.21428571428571 0.0595238095238102  5.47619047619048 0  5.71428571428571 0  L 9.42857142857143 0  C 9.66666666666667 0  9.86904761904762 0.0833333333333339  10.0357142857143 0.25  C 10.202380952381 0.416666666666666  10.2857142857143 0.619047619047619  10.2857142857143 0.857142857142858  L 10.2857142857143 3.78571428571429  C 10.6904761904762 3.54761904761905  11.0714285714286 3.42857142857143  11.4285714285714 3.42857142857143  Z M 10.2857142857143 8  L 10.2857142857143 5.33035714285714  L 7.61607142857143 8  L 10.2857142857143 8  Z M 4.57142857142857 4.57142857142857  L 4.57142857142857 1.90178571428571  L 1.90178571428571 4.57142857142857  L 4.57142857142857 4.57142857142857  Z M 5.89285714285714 8.35714285714286  C 6.01190476190476 8.07142857142857  6.15476190476191 7.84523809523809  6.32142857142857 7.67857142857143  L 9.14285714285714 4.85714285714286  L 9.14285714285714 1.14285714285714  L 5.71428571428571 1.14285714285714  L 5.71428571428571 4.85714285714286  C 5.71428571428571 5.09523809523809  5.63095238095238 5.29761904761905  5.46428571428571 5.46428571428571  C 5.29761904761905 5.63095238095238  5.0952380952381 5.71428571428571  4.85714285714286 5.71428571428571  L 1.14285714285714 5.71428571428571  L 1.14285714285714 11.4285714285714  L 5.71428571428571 11.4285714285714  L 5.71428571428571 9.14285714285714  C 5.71428571428571 8.90476190476191  5.77380952380952 8.64285714285714  5.89285714285714 8.35714285714286  Z M 6.85714285714286 14.8571428571429  L 14.8571428571429 14.8571428571429  L 14.8571428571429 4.57142857142857  L 11.4285714285714 4.57142857142857  L 11.4285714285714 8.28571428571428  C 11.4285714285714 8.52380952380952  11.3452380952381 8.72619047619047  11.1785714285714 8.89285714285714  C 11.0119047619048 9.05952380952381  10.8095238095238 9.14285714285714  10.5714285714286 9.14285714285714  L 6.85714285714286 9.14285714285714  L 6.85714285714286 14.8571428571429  Z " fill-rule="nonzero" fill="#495058" stroke="none" transform="matrix(1 0 0 1 1223 355 )" />
  </g>
</svg>