<?xml version="1.0" encoding="utf-8"?>
<svg version="1.1" xmlns:xlink="http://www.w3.org/1999/xlink" width="41px" height="41px" xmlns="http://www.w3.org/2000/svg">
  <g transform="matrix(1 0 0 1 -785 -1567 )">
    <path d="M 805.5 1567  C 816.98 1567  826 1576.02  826 1587.5  C 826 1598.98  816.98 1608  805.5 1608  C 794.02 1608  785 1598.98  785 1587.5  C 785 1576.02  794.02 1567  805.5 1567  Z " fill-rule="nonzero" fill="#ffffff" stroke="none" />
    <path d="M 805.5 1567.5  C 816.7 1567.5  825.5 1576.3  825.5 1587.5  C 825.5 1598.7  816.7 1607.5  805.5 1607.5  C 794.3 1607.5  785.5 1598.7  785.5 1587.5  C 785.5 1576.3  794.3 1567.5  805.5 1567.5  Z " stroke-width="1" stroke="#797979" fill="none" />
  </g>
</svg>