<?xml version="1.0" encoding="utf-8"?>
<svg version="1.1" xmlns:xlink="http://www.w3.org/1999/xlink" width="41px" height="41px" xmlns="http://www.w3.org/2000/svg">
  <g transform="matrix(1 0 0 1 -617 -1567 )">
    <path d="M 637.5 1567  C 648.98 1567  658 1576.02  658 1587.5  C 658 1598.98  648.98 1608  637.5 1608  C 626.02 1608  617 1598.98  617 1587.5  C 617 1576.02  626.02 1567  637.5 1567  Z " fill-rule="nonzero" fill="#2b97be" stroke="none" />
    <path d="M 637.5 1567.5  C 648.7 1567.5  657.5 1576.3  657.5 1587.5  C 657.5 1598.7  648.7 1607.5  637.5 1607.5  C 626.3 1607.5  617.5 1598.7  617.5 1587.5  C 617.5 1576.3  626.3 1567.5  637.5 1567.5  Z " stroke-width="1" stroke="#797979" fill="none" />
  </g>
</svg>