<?xml version="1.0" encoding="utf-8"?>
<svg version="1.1" xmlns:xlink="http://www.w3.org/1999/xlink" width="20px" height="20px" xmlns="http://www.w3.org/2000/svg">
  <g transform="matrix(1 0 0 1 -1287 -1578 )">
    <path d="M 12.9423387096774 6.73504032258065  L 14.6258064516129 5.0516129032258  C 13.3652419354839 3.87129032258065  11.7293548387097 3.22427419354838  9.99387096774194 3.2258064516129  C 6.87056451612903 3.22854838709677  4.1741935483871 5.37008064516128  3.42971774193547 8.34072580645161  C 3.37552419354838 8.5569758064516  3.1828629032258 8.70967741935483  2.95991935483871 8.70967741935483  L 0.649314516129039 8.70967741935483  C 0.34697580645161 8.70967741935483  0.117298387096776 8.43520161290323  0.173225806451615 8.13806451612904  C 1.04568548387097 3.505  5.11342741935484 0  10 0  C 12.6793548387097 0  15.1125403225806 1.05387096774193  16.9078629032258 2.7695564516129  L 18.3479838709677 1.32943548387098  C 18.9576209677419 0.719798387096785  20 1.15157258064517  20 2.01375  L 20 7.41935483870968  C 20 7.95383064516129  19.5667338709677 8.38709677419356  19.0322580645161 8.38709677419356  L 13.6266532258064 8.38709677419356  C 12.7644758064516 8.38709677419356  12.3327016129032 7.34471774193548  12.9423387096774 6.73504032258065  Z M 0 12.5806451612903  C 0 12.0461693548387  0.433266129032268 11.6129032258065  0.967741935483878 11.6129032258065  L 6.37334677419356 11.6129032258065  C 7.23552419354839 11.6129032258065  7.66729838709678 12.6552822580645  7.05766129032259 13.2649596774193  L 5.3741935483871 14.9484274193548  C 6.63475806451613 16.1287903225807  8.27076612903227 16.7758064516129  10.0062903225806 16.7742338709677  C 13.1279838709677 16.7714112903226  15.8254435483871 14.6313306451613  16.5702822580645 11.6593548387097  C 16.6244758064516 11.4431048387097  16.8171370967742 11.2904032258064  17.0400806451613 11.2904032258064  L 19.3507258064516 11.2904032258064  C 19.653064516129 11.2904032258064  19.8827419354839 11.5648790322581  19.826814516129 11.8620161290323  C 18.954314516129 16.495  14.8865725806452 20  10 20  C 7.32064516129033 20  4.88745967741936 18.9461290322581  3.0921370967742 17.2304435483871  L 1.65201612903227 18.670564516129  C 1.04237903225805 19.2802016129032  0 18.8484274193548  0 17.98625  L 0 12.5806451612903  Z " fill-rule="nonzero" fill="#2b97be" stroke="none" transform="matrix(1 0 0 1 1287 1578 )" />
  </g>
</svg>