<?xml version="1.0" encoding="utf-8"?>
<svg version="1.1" xmlns:xlink="http://www.w3.org/1999/xlink" width="16px" height="17px" xmlns="http://www.w3.org/2000/svg">
  <g transform="matrix(1 0 0 1 -1093 -1884 )">
    <path d="M 15.2021276595745 11.61046875  C 15.5297207446808 10.9978046875  15.6563829787234 10.270955078125  15.5009973404255 9.51900390625  C 15.7925531914894 9.0259375  15.9574468085106 8.5  15.9574468085106 7.86416015625  C 15.9574468085106 6.402724609375  14.7201462765957 5.02263671875  13.1043882978723 5.02263671875  L 11.8916223404255 5.02263671875  C 12.0551861702128 4.5973046875  12.1858377659574 4.0886328125  12.1858377659574 3.47736328125  C 12.1858377659574 1.060375  10.9328457446809 0  9.0186170212766 0  C 6.9705119680851 0  7.08733377659575 3.152072265625  6.63297872340426 3.605859375  C 5.8767619680851 4.361130859375  4.98354388297872 5.812107421875  4.34707446808511 6.375  L 1.06382978723404 6.375  C 0.476296542553195 6.375  0 6.850701171875  0 7.4375  L 0 15.40625  C 0 15.993048828125  0.476296542553195 16.46875  1.06382978723404 16.46875  L 3.19148936170213 16.46875  C 3.68660239361702 16.46875  4.10265957446808 16.13094140625  4.22134308510638 15.67353515625  C 5.70103058510639 15.706771484375  6.71668882978723 16.99966796875  10.1323138297872 16.99966796875  C 10.3723404255319 16.99966796875  10.6382978723404 17  10.8710106382979 17  C 13.4347406914894 17  14.5939494680851 15.691033203125  14.625664893617 13.83474609375  C 15.0684507978723 13.222978515625  15.3004986702128 12.4029609375  15.2021276595745 11.61046875  Z M 13.6213430851064 9.1275390625  C 14.0697805851064 9.610810546875  14.1655917553191 10.629515625  13.4481382978723 11.306328125  C 13.8656914893617 12.00791015625  13.4900265957447 12.94689453125  12.9847074468085 13.21783203125  C 13.2406914893617 14.83748046875  12.399335106383 15.40591796875  11.21875 15.40591796875  L 9.96143617021277 15.40591796875  C 7.57982047872341 15.40591796875  6.03759973404255 14.15017578125  4.25531914893617 14.15017578125  L 4.25531914893617 7.96875  L 4.61835106382979 7.96875  C 5.56117021276596 7.96875  6.87832446808511 5.61498046875  7.76130319148936 4.7327734375  C 8.70412234042553 3.7911328125  8.38996010638298 2.22162109375  9.0186170212766 1.59375  C 10.5900930851064 1.59375  10.5900930851064 2.6887890625  10.5900930851064 3.47736328125  C 10.5900930851064 4.7779296875  9.64727393617021 5.36064453125  9.64727393617021 6.61638671875  L 13.1043882978723 6.61638671875  C 13.8061835106383 6.61638671875  14.358710106383 7.2442578125  14.3617021276596 7.87212890625  C 14.3646941489362 8.49966796875  13.9355053191489 9.1275390625  13.6213430851064 9.1275390625  Z M 2.12765957446809 13.546875  C 2.56831781914894 13.546875  2.92553191489362 13.903642578125  2.92553191489362 14.34375  C 2.92553191489362 14.783857421875  2.56831781914894 15.140625  2.12765957446809 15.140625  C 1.68700132978723 15.140625  1.32978723404255 14.783857421875  1.32978723404255 14.34375  C 1.32978723404255 13.903642578125  1.68700132978723 13.546875  2.12765957446809 13.546875  Z " fill-rule="nonzero" fill="#ffffff" stroke="none" transform="matrix(1 0 0 1 1093 1884 )" />
  </g>
</svg>