<?xml version="1.0" encoding="utf-8"?>
<svg version="1.1" xmlns:xlink="http://www.w3.org/1999/xlink" width="16px" height="17px" xmlns="http://www.w3.org/2000/svg">
  <g transform="matrix(1 0 0 1 -1210 -1884 )">
    <path d="M 15.9574468085106 9.13583984375  C 15.9574468085106 8.5  15.7925531914894 7.9740625  15.5009973404255 7.48099609375  C 15.6563829787234 6.729044921875  15.5297207446808 6.0021953125  15.2021276595745 5.38953125  C 15.3004654255319 4.5970390625  15.0684507978723 3.777021484375  14.625664893617 3.16525390625  C 14.5939494680851 1.308966796875  13.4347406914894 0  10.8710106382979 0  C 10.6382978723404 0  10.3723404255319 0.00033203125  10.1323138297872 0.00033203125  C 6.68866356382979 0.00033203125  5.61825132978724 1.328125  4.25531914893617 1.328125  L 3.89478058510638 1.328125  C 3.70728058510638 1.162939453125  3.4612034574468 1.0625  3.19148936170213 1.0625  L 1.06382978723404 1.0625  C 0.476296542553195 1.0625  0 1.538201171875  0 2.125  L 0 10.09375  C 0 10.680548828125  0.476296542553195 11.15625  1.06382978723404 11.15625  L 3.19148936170213 11.15625  C 3.58517287234043 11.15625  3.92869015957447 10.94248828125  4.1126329787234 10.625  L 4.34707446808511 10.625  C 4.98357712765958 11.187892578125  5.8767619680851 12.638869140625  6.63297872340426 13.394140625  C 7.08733377659575 13.847927734375  6.9705119680851 17  9.0186170212766 17  C 10.9328457446809 17  12.1858377659574 15.939625  12.1858377659574 13.52263671875  C 12.1858377659574 12.9113671875  12.0551861702128 12.4026953125  11.8916223404255 11.97736328125  L 13.1043882978723 11.97736328125  C 14.7201462765957 11.97736328125  15.9574468085106 10.597275390625  15.9574468085106 9.13583984375  Z M 2.92553191489362 9.03125  C 2.92553191489362 9.471357421875  2.56831781914894 9.828125  2.12765957446809 9.828125  C 1.68700132978723 9.828125  1.32978723404255 9.471357421875  1.32978723404255 9.03125  C 1.32978723404255 8.591142578125  1.68700132978723 8.234375  2.12765957446809 8.234375  C 2.56831781914894 8.234375  2.92553191489362 8.591142578125  2.92553191489362 9.03125  Z M 14.3617021276596 9.12787109375  C 14.358710106383 9.7557421875  13.8061835106383 10.38361328125  13.1043882978723 10.38361328125  L 9.64727393617021 10.38361328125  C 9.64727393617021 11.63935546875  10.5900930851064 12.2220703125  10.5900930851064 13.52263671875  C 10.5900930851064 14.3112109375  10.5900930851064 15.40625  9.0186170212766 15.40625  C 8.38996010638298 14.77837890625  8.70412234042553 13.2088671875  7.76130319148936 12.2672265625  C 6.87832446808511 11.38501953125  5.56117021276596 9.03125  4.61835106382979 9.03125  L 4.25531914893617 9.03125  L 4.25531914893617 2.84982421875  C 6.03759973404255 2.84982421875  7.57982047872341 1.59408203125  9.96143617021277 1.59408203125  L 11.21875 1.59408203125  C 12.399335106383 1.59408203125  13.2406914893617 2.16251953125  12.9847074468085 3.78216796875  C 13.4900265957447 4.05310546875  13.8656914893617 4.99208984375  13.4481382978723 5.693671875  C 14.1655917553192 6.370484375  14.0697805851064 7.389189453125  13.6213430851064 7.8724609375  C 13.9355053191489 7.8724609375  14.3646941489362 8.50033203125  14.3617021276596 9.12787109375  Z " fill-rule="nonzero" fill="#ffffff" stroke="none" transform="matrix(1 0 0 1 1210 1884 )" />
  </g>
</svg>