<?xml version="1.0" encoding="utf-8"?>
<svg version="1.1" xmlns:xlink="http://www.w3.org/1999/xlink" width="12px" height="11px" xmlns="http://www.w3.org/2000/svg">
  <g transform="matrix(1 0 0 1 -894 -526 )">
    <path d="M 8.33333333333333 7.4585262345679  C 8.33333333333333 7.41396604938272  8.35 7.37152777777778  8.38125 7.33969907407407  L 9.04791666666667 6.66068672839506  C 9.15208333333333 6.55459104938272  9.33333333333333 6.62885802469136  9.33333333333333 6.78163580246914  L 9.33333333333333 9.86689814814815  C 9.33333333333333 10.4292052469136  8.88541666666667 10.8854166666667  8.33333333333333 10.8854166666667  L 1 10.8854166666667  C 0.447916666666666 10.8854166666667  0 10.4292052469136  0 9.86689814814815  L 0 2.39776234567901  C 0 1.83545524691358  0.447916666666666 1.37924382716049  1 1.37924382716049  L 6.69791666666667 1.37924382716049  C 6.84583333333333 1.37924382716049  6.92083333333333 1.56172839506173  6.81666666666666 1.66994598765432  L 6.15 2.34895833333333  C 6.11875 2.38078703703704  6.07708333333333 2.39776234567901  6.03125 2.39776234567901  L 1 2.39776234567901  L 1 9.86689814814815  L 8.33333333333333 9.86689814814815  L 8.33333333333333 7.4585262345679  Z M 11.6416666666667 1.30073302469136  C 12.11875 1.7866512345679  12.11875 2.57388117283951  11.64375 3.0576774691358  L 6.17291666666667 8.6298225308642  L 4.28958333333333 8.84201388888889  C 3.74375 8.90354938271605  3.27916666666667 8.43460648148148  3.33958333333333 7.87442129629629  L 3.54791666666667 5.95621141975309  L 9.01875 0.384066358024692  C 9.49583333333333 -0.101851851851853  10.2666666666667 -0.101851851851853  10.7416666666667 0.384066358024692  L 11.6416666666667 1.30073302469136  Z M 5.7125 7.65586419753087  L 9.58541666666667 3.7133487654321  L 8.375 2.48051697530864  L 4.50416666666667 6.42515432098766  L 4.35208333333333 7.81076388888889  L 5.7125 7.65586419753087  Z M 10.9375 2.3383487654321  C 11.0208333333333 2.24922839506173  11.0208333333333 2.10918209876543  10.9354166666667 2.02218364197531  L 10.0354166666667 1.10551697530864  C 9.95 1.01851851851852  9.81041666666667 1.01851851851852  9.72708333333333 1.10551697530864  L 9.08333333333333 1.76118827160494  L 10.29375 2.99402006172839  L 10.9375 2.3383487654321  Z " fill-rule="nonzero" fill="#2b97be" stroke="none" transform="matrix(1 0 0 1 894 526 )" />
  </g>
</svg>