<?xml version="1.0" encoding="utf-8"?>
<svg version="1.1" xmlns:xlink="http://www.w3.org/1999/xlink" width="12px" height="12px" xmlns="http://www.w3.org/2000/svg">
  <g transform="matrix(1 0 0 1 -1203 -906 )">
    <path d="M 12 1.28571428571428  C 12 0.575892857142853  11.4241071428571 0  10.7142857142857 0  L 1.28571428571429 0  C 0.57589285714286 0  0 0.575892857142853  0 1.28571428571428  L 0 10.7142857142857  C 0 11.4241071428571  0.57589285714286 12  1.28571428571429 12  L 10.7142857142857 12  C 11.4241071428571 12  12 11.4241071428571  12 10.7142857142857  L 12 1.28571428571428  Z M 9.85714285714285 5.25  L 9.85714285714285 6.75  C 9.85714285714285 6.92678571428571  9.7125 7.07142857142856  9.53571428571429 7.07142857142856  L 7.07142857142857 7.07142857142856  L 7.07142857142857 9.53571428571429  C 7.07142857142857 9.7125  6.92678571428571 9.85714285714285  6.75 9.85714285714285  L 5.25 9.85714285714285  C 5.07321428571429 9.85714285714285  4.92857142857143 9.7125  4.92857142857143 9.53571428571429  L 4.92857142857143 7.07142857142856  L 2.46428571428571 7.07142857142856  C 2.2875 7.07142857142856  2.14285714285714 6.92678571428571  2.14285714285714 6.75  L 2.14285714285714 5.25  C 2.14285714285714 5.07321428571428  2.2875 4.92857142857143  2.46428571428571 4.92857142857143  L 4.92857142857143 4.92857142857143  L 4.92857142857143 2.46428571428572  C 4.92857142857143 2.2875  5.07321428571429 2.14285714285715  5.25 2.14285714285715  L 6.75 2.14285714285715  C 6.92678571428571 2.14285714285715  7.07142857142857 2.2875  7.07142857142857 2.46428571428572  L 7.07142857142857 4.92857142857143  L 9.53571428571429 4.92857142857143  C 9.7125 4.92857142857143  9.85714285714285 5.07321428571428  9.85714285714285 5.25  Z " fill-rule="nonzero" fill="#2b97be" stroke="none" transform="matrix(1 0 0 1 1203 906 )" />
  </g>
</svg>