<?xml version="1.0" encoding="utf-8"?>
<svg version="1.1" xmlns:xlink="http://www.w3.org/1999/xlink" width="10px" height="12px" xmlns="http://www.w3.org/2000/svg">
  <g transform="matrix(1 0 0 1 -1325 -824 )">
    <path d="M 3.99502840909091 4.12500000003431  C 4.14211203835228 4.12500000003431  4.26136363636364 4.25092968753376  4.26136363636364 4.40625000003309  L 4.26136363636364 9.46875000001103  C 4.26136363636364 9.62407031251035  4.14211203835228 9.7500000000098  3.99502840909091 9.7500000000098  L 3.46235795454545 9.7500000000098  C 3.31527432528409 9.7500000000098  3.19602272727273 9.62407031251035  3.19602272727273 9.46875000001103  L 3.19602272727273 4.40625000003309  C 3.19602272727273 4.25092968753376  3.31527432528409 4.12500000003431  3.46235795454545 4.12500000003431  L 3.99502840909091 4.12500000003431  Z M 6.74715909090909 4.40625000003309  C 6.74715909090909 4.25092968753376  6.62790749289773 4.12500000003431  6.48082386363636 4.12500000003431  L 5.94815340909091 4.12500000003431  C 5.80106977982954 4.12500000003431  5.68181818181818 4.25092968753376  5.68181818181818 4.40625000003309  L 5.68181818181818 9.46875000001103  C 5.68181818181818 9.62407031251035  5.80106977982954 9.7500000000098  5.94815340909091 9.7500000000098  L 6.48082386363636 9.7500000000098  C 6.62790749289773 9.7500000000098  6.74715909090909 9.62407031251035  6.74715909090909 9.46875000001103  L 6.74715909090909 4.40625000003309  Z M 7.75898881392045 1.87500000004412  L 9.41051136363636 1.87500000004412  C 9.70470081676136 1.87500000004412  9.94318181818182 2.12683593754302  9.94318181818182 2.43750000004167  L 9.94318181818182 2.71875000004044  C 9.94318181818182 2.87407031253976  9.82393022017046 3.00000000003922  9.67684659090909 3.00000000003922  L 9.23295454545455 3.00000000003922  L 9.23295454545455 10.8750000000049  C 9.23295454545455 11.4963281250022  8.75599254261364 12  8.16761363636364 12  L 1.77556818181818 12  C 1.18718927556818 12  0.710227272727273 11.4963281250022  0.710227272727273 10.8750000000049  L 0.710227272727273 3.00000000003922  L 0.266335227272727 3.00000000003922  C 0.119251598011364 3.00000000003922  0 2.87407031253976  0 2.71875000004044  L 0 2.43750000004167  C 0 2.12683593754302  0.238481001420455 1.87500000004412  0.532670454545455 1.87500000004412  L 2.18419300426137 1.87500000004412  L 2.939208984375 0.546187500049906  C 3.1317433530878 0.207330813048688  3.47852235382093 0  3.85273881392045 0  L 6.09046519886364 0  C 6.46468165896316 0  6.81146065969629 0.207330813048688  7.00399502840909 0.546187500049906  L 7.75898881392045 1.87500000004412  Z M 3.81396484375 1.19327343754709  L 3.42660245028409 1.87500000004412  L 6.5166015625 1.87500000004412  L 6.12926136363636 1.19327343754709  C 6.10519456754726 1.15091635167193  6.06184719245562 1.1249995248021  6.01507013494318 1.12500000004739  L 3.92815607244318 1.12500000004739  C 3.88137901493074 1.1249995248021  3.8380316398391 1.15091635167194  3.81396484375 1.19327343754709  Z M 8.16761363636364 10.7343750000055  L 8.16761363636364 3.00000000003922  L 1.77556818181818 3.00000000003922  L 1.77556818181818 10.7343750000055  C 1.77556818181818 10.8120400429501  1.83518935327182 10.8750000000049  1.90873579545455 10.8750000000049  L 8.03444602272727 10.8750000000049  C 8.10799246491 10.8750000000049  8.16761363636364 10.8120400429501  8.16761363636364 10.7343750000055  Z " fill-rule="nonzero" fill="#f85d66" stroke="none" transform="matrix(1 0 0 1 1325 824 )" />
  </g>
</svg>