<?xml version="1.0" encoding="utf-8"?>
<svg version="1.1" xmlns:xlink="http://www.w3.org/1999/xlink" width="16px" height="15px" xmlns="http://www.w3.org/2000/svg">
  <g transform="matrix(1 0 0 1 -1313 -655 )">
    <path d="M 13.3541791942273 8.23508522727273  C 13.4824614151133 8.29190340909091  13.5466025255562 8.39488636363636  13.5466025255562 8.54403409090909  L 13.5466025255562 11.9318181818182  C 13.5466025255562 12.7769886363636  13.2756063339347 13.4996448863636  12.7336139506915 14.0997869318182  C 12.1916215674484 14.6999289772727  11.5389857686911 15  10.7757065544197 15  L 2.7708959711365 15  C 2.0076167568651 15  1.35498095810784 14.6999289772727  0.812988574864702 14.0997869318182  C 0.270996191621567 13.4996448863636  0 12.7769886363636  0 11.9318181818182  L 0 3.06818181818182  C 0 2.22301136363636  0.270996191621567 1.50035511363636  0.812988574864702 0.900213068181819  C 1.35498095810784 0.300071022727271  2.0076167568651 0  2.7708959711365 0  L 10.7757065544197 0  C 11.1797955502105 0  11.5550210463019 0.0887784090909083  11.9013830426939 0.266335227272727  C 11.9975947083584 0.316051136363635  12.0553217077571 0.397727272727272  12.07456404089 0.511363636363636  C 12.0938063740229 0.632102272727272  12.0649428743235 0.735085227272727  11.9879735417919 0.8203125  L 11.5165363800361 1.34232954545455  C 11.4523952695931 1.41335227272727  11.3786329925837 1.44886363636364  11.2952495490078 1.44886363636364  C 11.2760072158749 1.44886363636364  11.2471437161756 1.44176136363636  11.2086590499098 1.42755681818182  C 11.061134495891 1.38494318181818  10.9168169973943 1.36363636363636  10.7757065544197 1.36363636363636  L 2.7708959711365 1.36363636363636  C 2.34756464221287 1.36363636363636  1.98516736821006 1.53053977272727  1.68370414912808 1.86434659090909  C 1.3822409300461 2.19815340909091  1.23150932050511 2.59943181818182  1.23150932050511 3.06818181818182  L 1.23150932050511 11.9318181818182  C 1.23150932050511 12.4005681818182  1.3822409300461 12.8018465909091  1.68370414912808 13.1356534090909  C 1.98516736821006 13.4694602272727  2.34756464221287 13.6363636363636  2.7708959711365 13.6363636363636  L 10.7757065544197 13.6363636363636  C 11.1990378833434 13.6363636363636  11.5614351573462 13.4694602272727  11.8628983764281 13.1356534090909  C 12.1643615955101 12.8018465909091  12.3150932050511 12.4005681818182  12.3150932050511 11.9318181818182  L 12.3150932050511 9.22585227272727  C 12.3150932050511 9.13352272727273  12.3439567047505 9.05539772727273  12.4016837041491 8.99147727272727  L 13.0174383644017 8.30965909090909  C 13.0815794748447 8.23863636363636  13.1553417518541 8.203125  13.2387251954299 8.203125  C 13.2772098616957 8.203125  13.3156945279615 8.21377840909091  13.3541791942273 8.23508522727273  Z M 16 2.72727272727273  C 16 2.96164772727273  15.9230306674684 3.1640625  15.7690920024053 3.33451704545455  L 7.9374624173181 12.0063920454545  C 7.78352375225496 12.1768465909091  7.60072158749248 12.2620738636364  7.38905592303067 12.2620738636364  C 7.17739025856885 12.2620738636364  6.99458809380637 12.1768465909091  6.84064942874324 12.0063920454545  L 2.70354780517138 7.42542613636364  C 2.54960914010824 7.25497159090909  2.47263980757667 7.05255681818182  2.47263980757667 6.81818181818182  C 2.47263980757667 6.58380681818182  2.54960914010824 6.38139204545454  2.70354780517138 6.2109375  L 3.76187612748046 5.0390625  C 3.9158147925436 4.86860795454546  4.09861695730607 4.78338068181818  4.31028262176789 4.78338068181818  C 4.52194828622971 4.78338068181818  4.70475045099218 4.86860795454546  4.85868911605532 5.0390625  L 7.38905592303067 7.84090909090909  L 13.6139506915213 0.948153409090909  C 13.7678893565845 0.777698863636364  13.950691521347 0.692471590909091  14.1623571858088 0.692471590909091  C 14.3740228502706 0.692471590909091  14.5568250150331 0.777698863636364  14.7107636800962 0.948153409090909  L 15.7690920024053 2.12002840909091  C 15.9230306674684 2.29048295454545  16 2.49289772727273  16 2.72727272727273  Z " fill-rule="nonzero" fill="#ffffff" stroke="none" transform="matrix(1 0 0 1 1313 655 )" />
  </g>
</svg>