<?xml version="1.0" encoding="utf-8"?>
<svg version="1.1" xmlns:xlink="http://www.w3.org/1999/xlink" width="35px" height="33px" xmlns="http://www.w3.org/2000/svg">
  <g transform="matrix(1 0 0 1 -279 -1035 )">
    <path d="M 296.5 1035  C 306.3 1035  314 1042.26  314 1051.5  C 314 1060.74  306.3 1068  296.5 1068  C 286.7 1068  279 1060.74  279 1051.5  C 279 1042.26  286.7 1035  296.5 1035  Z " fill-rule="nonzero" fill="#ffffff" stroke="none" />
    <path d="M 296.5 1035.5  C 306.02 1035.5  313.5 1042.54  313.5 1051.5  C 313.5 1060.46  306.02 1067.5  296.5 1067.5  C 286.98 1067.5  279.5 1060.46  279.5 1051.5  C 279.5 1042.54  286.98 1035.5  296.5 1035.5  Z " stroke-width="1" stroke="#f2f2f2" fill="none" />
  </g>
</svg>