<?xml version="1.0" encoding="utf-8"?>
<svg version="1.1" xmlns:xlink="http://www.w3.org/1999/xlink" width="136px" height="45px" xmlns="http://www.w3.org/2000/svg">
  <defs>
    <mask fill="white" id="clip39">
      <path d="M 0 39.1935483870968  L 0 21.7741935483871  L 0 5.80645161290323  C 0 2.55483870967741  1.75999999999999 0  4 0  L 136 0  L 136 45  L 4 45  C 1.75999999999999 45  0 42.4451612903226  0 39.1935483870968  Z " fill-rule="evenodd" />
    </mask>
  </defs>
  <g transform="matrix(1 0 0 1 -556 -506 )">
    <path d="M 0 39.1935483870968  L 0 21.7741935483871  L 0 5.80645161290323  C 0 2.55483870967741  1.75999999999999 0  4 0  L 136 0  L 136 45  L 4 45  C 1.75999999999999 45  0 42.4451612903226  0 39.1935483870968  Z " fill-rule="nonzero" fill="#dfe2e7" stroke="none" fill-opacity="0" transform="matrix(1 0 0 1 556 506 )" />
    <path d="M 0 39.1935483870968  L 0 21.7741935483871  L 0 5.80645161290323  C 0 2.55483870967741  1.75999999999999 0  4 0  L 136 0  L 136 45  L 4 45  C 1.75999999999999 45  0 42.4451612903226  0 39.1935483870968  Z " stroke-width="2" stroke="#dfe2e7" fill="none" transform="matrix(1 0 0 1 556 506 )" mask="url(#clip39)" />
  </g>
</svg>