<?xml version="1.0" encoding="utf-8"?>
<svg version="1.1" xmlns:xlink="http://www.w3.org/1999/xlink" width="10px" height="11px" xmlns="http://www.w3.org/2000/svg">
  <g transform="matrix(1 0 0 1 -1031 -330 )">
    <path d="M 10 1.171875  C 10 0.52490234375  9.580078125 0  9.0625 0  L 0.9375 0  C 0.419921875 0  0 0.52490234375  0 1.171875  L 0 9.765625  C 0 10.41259765625  0.419921875 10.9375  0.9375 10.9375  L 9.0625 10.9375  C 9.580078125 10.9375  10 10.41259765625  10 9.765625  L 10 1.171875  Z M 9.0625 1.318359375  L 9.0625 9.619140625  C 9.0625 9.69970703125  9.009765625 9.765625  8.9453125 9.765625  L 1.0546875 9.765625  C 0.990234375 9.765625  0.9375 9.69970703125  0.9375 9.619140625  L 0.9375 1.318359375  C 0.9375 1.23779296875  0.990234375 1.171875  1.0546875 1.171875  L 8.9453125 1.171875  C 9.009765625 1.171875  9.0625 1.23779296875  9.0625 1.318359375  Z M 6.962890625 3.5595703125  C 7.0546875 3.671875  7.0546875 3.85498046875  6.962890625 3.9697265625  L 5.763671875 5.46875  L 6.962890625 6.9677734375  C 7.052734375 7.080078125  7.052734375 7.26318359375  6.962890625 7.3779296875  L 6.52734375 7.92236328125  C 6.4375 8.03466796875  6.291015625 8.03466796875  6.19921875 7.92236328125  L 5 6.42333984375  L 3.80078125 7.92236328125  C 3.7109375 8.03466796875  3.564453125 8.03466796875  3.47265625 7.92236328125  L 3.037109375 7.3779296875  C 2.947265625 7.265625  2.947265625 7.08251953125  3.037109375 6.9677734375  L 4.236328125 5.46875  L 3.037109375 3.9697265625  C 2.947265625 3.857421875  2.947265625 3.67431640625  3.037109375 3.5595703125  L 3.47265625 3.01513671875  C 3.5625 2.90283203125  3.708984375 2.90283203125  3.80078125 3.01513671875  L 5 4.51416015625  L 6.19921875 3.01513671875  C 6.2890625 2.90283203125  6.435546875 2.90283203125  6.52734375 3.01513671875  L 6.962890625 3.5595703125  Z " fill-rule="nonzero" fill="#2b97be" stroke="none" transform="matrix(1 0 0 1 1031 330 )" />
  </g>
</svg>