<?xml version="1.0" encoding="utf-8"?>
<svg version="1.1" xmlns:xlink="http://www.w3.org/1999/xlink" width="138px" height="31px" xmlns="http://www.w3.org/2000/svg">
  <defs>
    <mask fill="white" id="clip40">
      <path d="M 0 27  L 0 10  L 0 4  C 0 1.75999999999999  1.78588235294117 0  4.05882352941176 0  L 138 0  L 138 31  L 4.05882352941176 31  C 1.78588235294117 31  0 29.24  0 27  Z " fill-rule="evenodd" />
    </mask>
  </defs>
  <g transform="matrix(1 0 0 1 -556 -475 )">
    <path d="M 0 27  L 0 10  L 0 4  C 0 1.75999999999999  1.78588235294117 0  4.05882352941176 0  L 138 0  L 138 31  L 4.05882352941176 31  C 1.78588235294117 31  0 29.24  0 27  Z " fill-rule="nonzero" fill="#dfe2e7" stroke="none" fill-opacity="0" transform="matrix(1 0 0 1 556 475 )" />
    <path d="M 0 27  L 0 10  L 0 4  C 0 1.75999999999999  1.78588235294117 0  4.05882352941176 0  L 138 0  L 138 31  L 4.05882352941176 31  C 1.78588235294117 31  0 29.24  0 27  Z " stroke-width="2" stroke="#dfe2e7" fill="none" transform="matrix(1 0 0 1 556 475 )" mask="url(#clip40)" />
  </g>
</svg>