<?xml version="1.0" encoding="utf-8"?>
<svg version="1.1" xmlns:xlink="http://www.w3.org/1999/xlink" width="15px" height="15px" xmlns="http://www.w3.org/2000/svg">
  <g transform="matrix(1 0 0 1 -21 -155 )">
    <path d="M 14.7631578947368 13.9385964912281  C 15.0380116959064 13.6637426900585  15.0380116959064 13.219298245614  14.766081871345 12.9444444444444  L 11.8508771929825 10.0292397660819  C 11.719298245614 9.89766081871345  11.5409356725146 9.82456140350877  11.3538011695906 9.82456140350877  L 10.8771929824561 9.82456140350877  C 11.6842105263158 8.79239766081872  12.1637426900585 7.49415204678363  12.1637426900585 6.08187134502924  C 12.1637426900585 2.72222222222222  9.44152046783625 0  6.08187134502924 0  C 2.72222222222222 0  0 2.72222222222222  0 6.08187134502924  C 0 9.44152046783626  2.72222222222222 12.1637426900585  6.08187134502924 12.1637426900585  C 7.49415204678363 12.1637426900585  8.79239766081872 11.6842105263158  9.82456140350877 10.8771929824561  L 9.82456140350877 11.3538011695906  C 9.82456140350877 11.5409356725146  9.89766081871345 11.719298245614  10.0292397660819 11.8508771929825  L 12.9444444444444 14.766081871345  C 13.219298245614 15.0409356725146  13.6637426900585 15.0409356725146  13.9356725146199 14.766081871345  L 14.7631578947368 13.9385964912281  Z M 9.82456140350877 6.08187134502924  C 9.82456140350877 8.14912280701754  8.15204678362573 9.82456140350877  6.08187134502924 9.82456140350877  C 4.01461988304094 9.82456140350877  2.33918128654971 8.15204678362573  2.33918128654971 6.08187134502924  C 2.33918128654971 4.01461988304094  4.01169590643275 2.33918128654971  6.08187134502924 2.33918128654971  C 8.14912280701754 2.33918128654971  9.82456140350877 4.01169590643275  9.82456140350877 6.08187134502924  Z " fill-rule="nonzero" fill="#495058" stroke="none" transform="matrix(1 0 0 1 21 155 )" />
  </g>
</svg>