<?xml version="1.0" encoding="utf-8"?>
<svg version="1.1" xmlns:xlink="http://www.w3.org/1999/xlink" width="8px" height="8px" xmlns="http://www.w3.org/2000/svg">
  <g transform="matrix(1 0 0 1 -306 -869 )">
    <path d="M 7.8515625 0.263888888888889  C 7.95052083333333 0.439814814814814  8 0.648148148148146  8 0.888888888888889  C 8 1.12962962962963  7.95052083333333 1.33796296296296  7.8515625 1.51388888888889  L 4.3515625 7.73611111111111  C 4.25260416666667 7.91203703703704  4.13541666666667 8  4 8  C 3.86458333333333 8  3.74739583333333 7.91203703703704  3.6484375 7.73611111111111  L 0.1484375 1.51388888888889  C 0.0494791666666667 1.33796296296296  0 1.12962962962963  0 0.888888888888889  C 0 0.648148148148146  0.0494791666666667 0.439814814814814  0.1484375 0.263888888888889  C 0.247395833333333 0.0879629629629619  0.364583333333333 0  0.5 0  L 7.5 0  C 7.63541666666667 0  7.75260416666667 0.0879629629629619  7.8515625 0.263888888888889  Z " fill-rule="nonzero" fill="#f9f9fb" stroke="none" transform="matrix(1 0 0 1 306 869 )" />
  </g>
</svg>