<?xml version="1.0" encoding="utf-8"?>
<svg version="1.1" xmlns:xlink="http://www.w3.org/1999/xlink" width="12px" height="12px" xmlns="http://www.w3.org/2000/svg">
  <g transform="matrix(1 0 0 1 -811 -886 )">
    <path d="M 2.98828125 0.8046875  C 3.90755208333333 0.268229166666666  4.91145833333333 0  6 0  C 7.08854166666667 0  8.09244791666667 0.268229166666666  9.01171875 0.8046875  C 9.93098958333333 1.34114583333333  10.6588541666667 2.06901041666667  11.1953125 2.98828125  C 11.7317708333333 3.90755208333333  12 4.91145833333333  12 6  C 12 7.08854166666667  11.7317708333333 8.09244791666666  11.1953125 9.01171875  C 10.6588541666667 9.93098958333333  9.93098958333333 10.6588541666667  9.01171875 11.1953125  C 8.09244791666667 11.7317708333333  7.08854166666667 12  6 12  C 4.91145833333333 12  3.90755208333333 11.7317708333333  2.98828125 11.1953125  C 2.06901041666667 10.6588541666667  1.34114583333333 9.93098958333333  0.8046875 9.01171875  C 0.268229166666667 8.09244791666666  0 7.08854166666667  0 6  C 0 4.91145833333333  0.268229166666667 3.90755208333333  0.8046875 2.98828125  C 1.34114583333333 2.06901041666667  2.06901041666667 1.34114583333333  2.98828125 0.8046875  Z M 6.9296875 9.92578125  C 6.9765625 9.87630208333333  7 9.81510416666667  7 9.7421875  L 7 8.2578125  C 7 8.18489583333333  6.9765625 8.12369791666667  6.9296875 8.07421875  C 6.8828125 8.02473958333333  6.82552083333333 8  6.7578125 8  L 5.2578125 8  C 5.19010416666667 8  5.13020833333333 8.02604166666667  5.078125 8.078125  C 5.02604166666667 8.13020833333333  5 8.19010416666667  5 8.2578125  L 5 9.7421875  C 5 9.80989583333333  5.02604166666667 9.86979166666667  5.078125 9.921875  C 5.13020833333333 9.97395833333333  5.19010416666667 10  5.2578125 10  L 6.7578125 10  C 6.82552083333333 10  6.8828125 9.97526041666667  6.9296875 9.92578125  Z M 6.90234375 7.19140625  C 6.95182291666667 7.15234375  6.97916666666667 7.10677083333333  6.984375 7.0546875  L 7.125 2.203125  C 7.125 2.140625  7.09895833333333 2.09375  7.046875 2.0625  C 6.99479166666667 2.02083333333333  6.93229166666667 2  6.859375 2  L 5.140625 2  C 5.06770833333333 2  5.00520833333333 2.02083333333333  4.953125 2.0625  C 4.90104166666667 2.09375  4.875 2.140625  4.875 2.203125  L 5.0078125 7.0546875  C 5.0078125 7.10677083333333  5.03385416666667 7.15234375  5.0859375 7.19140625  C 5.13802083333333 7.23046875  5.20052083333333 7.25  5.2734375 7.25  L 6.71875 7.25  C 6.79166666666667 7.25  6.85286458333333 7.23046875  6.90234375 7.19140625  Z " fill-rule="nonzero" fill="#2b97be" stroke="none" transform="matrix(1 0 0 1 811 886 )" />
  </g>
</svg>