<?xml version="1.0" encoding="utf-8"?>
<svg version="1.1" xmlns:xlink="http://www.w3.org/1999/xlink" width="14px" height="12px" xmlns="http://www.w3.org/2000/svg">
  <g transform="matrix(1 0 0 1 -20 -539 )">
    <path d="M 13.3984375 0.040133779264214  C 13.5442708333333 -0.0178372352285399  13.6809895833333 -0.0044593088071343  13.80859375 0.080267558528428  C 13.9361979166667 0.169453734671126  14 0.287625418060201  14 0.434782608695653  L 14 9.85284280936455  C 14 9.94202898550725  13.9749348958333 10.0222965440357  13.9248046875 10.0936454849498  C 13.8746744791667 10.164994425864  13.80859375 10.216276477146  13.7265625 10.247491638796  L 9.3515625 11.9598662207358  C 9.2421875 12.0089186176143  9.1328125 12.0089186176143  9.0234375 11.9598662207358  L 4.8125 10.314381270903  L 0.6015625 11.9598662207358  C 0.555989583333333 11.9821627647715  0.501302083333333 11.9933110367893  0.4375 11.9933110367893  C 0.350911458333333 11.9933110367893  0.268880208333333 11.9687848383501  0.19140625 11.9197324414716  C 0.0638020833333333 11.8305462653289  0 11.7123745819398  0 11.5652173913043  L 0 2.14715719063545  C 0 2.05797101449275  0.0250651041666667 1.97770345596432  0.0751953125 1.90635451505017  C 0.125325520833333 1.83500557413601  0.19140625 1.78372352285396  0.2734375 1.75250836120401  L 4.6484375 0.040133779264214  C 4.7578125 -0.00891861761427126  4.8671875 -0.00891861761427126  4.9765625 0.040133779264214  L 9.1875 1.68561872909699  L 13.3984375 0.040133779264214  Z M 8.96875 2.52173913043478  L 5.03125 0.983277591973243  L 5.03125 9.47826086956522  L 8.96875 11.0167224080268  L 8.96875 2.52173913043478  Z M 4.59375 0.983277591973243  L 0.875 2.43478260869565  L 0.875 10.9297658862876  L 4.59375 9.47826086956522  L 4.59375 0.983277591973243  Z M 9.40625 11.0167224080268  L 13.125 9.56521739130435  L 13.125 1.07023411371237  L 9.40625 2.52173913043478  L 9.40625 11.0167224080268  Z " fill-rule="nonzero" fill="#000000" stroke="none" transform="matrix(1 0 0 1 20 539 )" />
  </g>
</svg>