<?xml version="1.0" encoding="utf-8"?>
<svg version="1.1" xmlns:xlink="http://www.w3.org/1999/xlink" width="10px" height="10px" xmlns="http://www.w3.org/2000/svg">
  <g transform="matrix(1 0 0 1 -274 -843 )">
    <path d="M 8.20963541666667 5.70963541666667  C 8.29210069444444 5.62717013888889  8.33333333333333 5.52951388888889  8.33333333333333 5.41666666666667  L 8.33333333333333 4.58333333333333  C 8.33333333333333 4.47048611111111  8.29210069444444 4.37282986111111  8.20963541666667 4.29036458333333  C 8.12717013888889 4.20789930555556  8.02951388888889 4.16666666666667  7.91666666666667 4.16666666666667  L 2.08333333333333 4.16666666666667  C 1.97048611111111 4.16666666666667  1.87282986111111 4.20789930555556  1.79036458333333 4.29036458333333  C 1.70789930555556 4.37282986111111  1.66666666666667 4.47048611111111  1.66666666666667 4.58333333333333  L 1.66666666666667 5.41666666666667  C 1.66666666666667 5.52951388888889  1.70789930555556 5.62717013888889  1.79036458333333 5.70963541666667  C 1.87282986111111 5.79210069444444  1.97048611111111 5.83333333333333  2.08333333333333 5.83333333333333  L 7.91666666666667 5.83333333333333  C 8.02951388888889 5.83333333333333  8.12717013888889 5.79210069444444  8.20963541666667 5.70963541666667  Z M 9.44986979166667 0.550130208333334  C 9.81662326388889 0.916883680555555  10 1.35850694444444  10 1.875  L 10 8.125  C 10 8.64149305555556  9.81662326388889 9.08311631944444  9.44986979166667 9.44986979166667  C 9.08311631944444 9.81662326388889  8.64149305555556 10  8.125 10  L 1.875 10  C 1.35850694444444 10  0.916883680555556 9.81662326388889  0.550130208333333 9.44986979166667  C 0.183376736111111 9.08311631944444  0 8.64149305555556  0 8.125  L 0 1.875  C 0 1.35850694444444  0.183376736111111 0.916883680555555  0.550130208333333 0.550130208333334  C 0.916883680555556 0.18337673611111  1.35850694444444 0  1.875 0  L 8.125 0  C 8.64149305555556 0  9.08311631944444 0.18337673611111  9.44986979166667 0.550130208333334  Z " fill-rule="nonzero" fill="#dfe2e7" stroke="none" transform="matrix(1 0 0 1 274 843 )" />
  </g>
</svg>