<?xml version="1.0" encoding="utf-8"?>
<svg version="1.1" xmlns:xlink="http://www.w3.org/1999/xlink" width="15px" height="15px" xmlns="http://www.w3.org/2000/svg">
  <g transform="matrix(1 0 0 1 -21 -748 )">
    <path d="M 8.57142857142857 12.2727272727273  L 8.57142857142857 13.6363636363636  L 13.9285714285714 13.6363636363636  L 13.9285714285714 12.2727272727273  L 8.57142857142857 12.2727272727273  Z M 5.35714285714286 6.81818181818182  L 5.35714285714286 8.18181818181818  L 13.9285714285714 8.18181818181818  L 13.9285714285714 6.81818181818182  L 5.35714285714286 6.81818181818182  Z M 10.7142857142857 1.36363636363636  L 10.7142857142857 2.72727272727273  L 13.9285714285714 2.72727272727273  L 13.9285714285714 1.36363636363636  L 10.7142857142857 1.36363636363636  Z M 14.8409598214286 11.1115056818182  C 14.9469866071429 11.2464488636364  15 11.40625  15 11.5909090909091  L 15 14.3181818181818  C 15 14.5028409090909  14.9469866071429 14.6626420454545  14.8409598214286 14.7975852272727  C 14.7349330357143 14.9325284090909  14.609375 15  14.4642857142857 15  L 0.535714285714286 15  C 0.390625 15  0.265066964285714 14.9325284090909  0.159040178571429 14.7975852272727  C 0.0530133928571429 14.6626420454545  0 14.5028409090909  0 14.3181818181818  L 0 11.5909090909091  C 0 11.40625  0.0530133928571429 11.2464488636364  0.159040178571429 11.1115056818182  C 0.265066964285714 10.9765625  0.390625 10.9090909090909  0.535714285714286 11  L 14.4642857142857 11  C 14.609375 10.9090909090909  14.7349330357143 10.9765625  14.8409598214286 11.1115056818182  Z M 14.8409598214286 5.65696022727273  C 14.9469866071429 5.79190340909091  15 5.95170454545454  15 6.13636363636364  L 15 8.86363636363636  C 15 9.04829545454545  14.9469866071429 9.20809659090909  14.8409598214286 9.34303977272727  C 14.7349330357143 9.47798295454545  14.609375 9.54545454545455  14.4642857142857 9.54545454545455  L 0.535714285714286 9.54545454545455  C 0.390625 9.54545454545455  0.265066964285714 9.47798295454545  0.159040178571429 9.34303977272727  C 0.0530133928571429 9.20809659090909  0 9.04829545454545  0 8.86363636363636  L 0 6.13636363636364  C 0 5.95170454545454  0.0530133928571429 5.79190340909091  0.159040178571429 5.65696022727273  C 0.265066964285714 5.52201704545454  0.390625 5.45454545454546  0.535714285714286 5.45454545454546  L 14.4642857142857 5.45454545454546  C 14.609375 5.45454545454546  14.7349330357143 5.52201704545454  14.8409598214286 5.65696022727273  Z M 14.8409598214286 0.202414772727273  C 14.9469866071429 0.337357954545452  15 0.49715909090909  15 0.681818181818181  L 15 3.40909090909091  C 15 3.59375  14.9469866071429 3.75355113636363  14.8409598214286 3.88849431818182  C 14.7349330357143 4.0234375  14.609375 4.09090909090909  14.4642857142857 4  L 0.535714285714286 4  C 0.390625 4.09090909090909  0.265066964285714 4.0234375  0.159040178571429 3.88849431818182  C 0.0530133928571429 3.75355113636363  0 3.59375  0 3.40909090909091  L 0 0.681818181818181  C 0 0.49715909090909  0.0530133928571429 0.337357954545452  0.159040178571429 0.202414772727273  C 0.265066964285714 0.0674715909090895  0.390625 0  0.535714285714286 0  L 14.4642857142857 0  C 14.609375 0  14.7349330357143 0.0674715909090895  14.8409598214286 0.202414772727273  Z " fill-rule="nonzero" fill="#4a5058" stroke="none" transform="matrix(1 0 0 1 21 748 )" />
  </g>
</svg>