<?xml version="1.0" encoding="utf-8"?>
<svg version="1.1" xmlns:xlink="http://www.w3.org/1999/xlink" width="15px" height="13px" xmlns="http://www.w3.org/2000/svg">
  <g transform="matrix(1 0 0 1 -21 -569 )">
    <path d="M 15 7.29691938920455  C 15 6.86412464488636  14.7275390625 6.47749467329546  14.314453125 6.32457386363636  L 11.484375 5.28009588068182  L 11.484375 2.14954723011364  C 11.484375 1.71675248579545  11.2119140625 1.33012251420455  10.798828125 1.17720170454545  L 7.869140625 0.09521484375  C 7.6318359375 0.00577059659090909  7.3681640625 0.00577059659090909  7.1279296875 0.09521484375  L 4.1982421875 1.17720170454545  C 3.78515625 1.33012251420455  3.5126953125 1.71675248579545  3.5126953125 2.14954723011364  L 3.5126953125 5.28009588068182  L 0.6826171875 6.32457386363636  C 0.2724609375 6.47749467329546  0 6.86412464488636  0 7.29691938920455  L 0 10.4736328125  C 0 10.8660333806818  0.2255859375 11.2266956676136  0.5830078125 11.4026988636364  L 3.5126953125 12.8453480113636  C 3.80859375 12.9924982244318  4.16015625 12.9924982244318  4.4560546875 12.8453480113636  L 7.5 11.3449928977273  L 10.5439453125 12.8453480113636  C 10.83984375 12.9924982244318  11.19140625 12.9924982244318  11.4873046875 12.8453480113636  L 14.4169921875 11.4026988636364  C 14.7744140625 11.2266956676136  15 10.8660333806818  15 10.4736328125  L 15 7.29691938920455  Z M 10.48828125 3.18825461647727  L 10.48828125 5.30317826704546  L 7.998046875 6.22358842329546  L 7.998046875 4.25581498579546  L 10.48828125 3.18825461647727  Z M 4.51171875 2.12646484375  L 4.51171875 2.10915305397727  L 7.5 1.00696910511364  L 10.48828125 2.10915305397727  L 10.48828125 2.12646484375  L 7.5 3.32097833806818  L 4.51171875 2.12646484375  Z M 6.97265625 8.33274147727273  L 6.97265625 10.5082563920455  L 4.482421875 11.7345081676136  L 4.482421875 9.45223721590909  L 6.97265625 8.33274147727273  Z M 6.97265625 7.25941051136364  L 6.97265625 7.27672230113636  L 3.984375 8.47123579545455  L 0.99609375 7.27672230113636  L 0.99609375 7.25941051136364  L 3.984375 6.1572265625  L 6.97265625 7.25941051136364  Z M 14.00390625 8.33274147727273  L 14.00390625 10.5082563920455  L 11.513671875 11.7345081676136  L 11.513671875 9.45223721590909  L 14.00390625 8.33274147727273  Z M 14.00390625 7.25941051136364  L 14.00390625 7.27672230113636  L 11.015625 8.47123579545455  L 8.02734375 7.27672230113636  L 8.02734375 7.25941051136364  L 11.015625 6.1572265625  L 14.00390625 7.25941051136364  Z " fill-rule="nonzero" fill="#495058" stroke="none" transform="matrix(1 0 0 1 21 569 )" />
  </g>
</svg>