<?xml version="1.0" encoding="utf-8"?>
<svg version="1.1" xmlns:xlink="http://www.w3.org/1999/xlink" width="15px" height="15px" xmlns="http://www.w3.org/2000/svg">
  <g transform="matrix(1 0 0 1 -21 -687 )">
    <path d="M 0 7.5  C 0 3.35685483870968  3.35685483870968 0  7.5 0  C 11.6431451612903 0  15 3.35685483870968  15 7.5  C 15 11.6431451612903  11.6431451612903 15  7.5 15  C 3.35685483870968 15  0 11.6431451612903  0 7.5  Z M 3.62903225806452 8.46774193548387  C 3.62903225806452 8.66733870967742  3.79233870967742 8.83064516129032  3.99193548387097 8.83064516129032  L 7.5 8.83064516129032  L 7.5 10.9747983870968  C 7.5 11.2983870967742  7.89314516129032 11.4616935483871  8.11995967741935 11.2318548387097  L 11.5766129032258 7.7570564516129  C 11.71875 7.61491935483871  11.71875 7.38810483870968  11.5766129032258 7.24596774193548  L 8.11995967741935 3.76814516129032  C 7.89012096774194 3.5383064516129  7.5 3.70161290322581  7.5 4.02520161290322  L 7.5 6.16935483870968  L 3.99193548387097 6.16935483870968  C 3.79233870967742 6.16935483870968  3.62903225806452 6.33266129032258  3.62903225806452 6.53225806451613  L 3.62903225806452 8.46774193548387  Z " fill-rule="nonzero" fill="#7f7f7f" stroke="none" transform="matrix(1 0 0 1 21 687 )" />
  </g>
</svg>