<?xml version="1.0" encoding="utf-8"?>
<svg version="1.1" xmlns:xlink="http://www.w3.org/1999/xlink" width="17px" height="13px" xmlns="http://www.w3.org/2000/svg">
  <g transform="matrix(1 0 0 1 -21 -599 )">
    <path d="M 17 7.29691938920455  C 17 6.86412464488636  16.6912109375 6.47749467329546  16.223046875 6.32457386363636  L 13.015625 5.28009588068182  L 13.015625 2.14954723011364  C 13.015625 1.71675248579545  12.7068359375 1.33012251420455  12.238671875 1.17720170454545  L 8.918359375 0.09521484375  C 8.6494140625 0.00577059659090909  8.3505859375 0.00577059659090909  8.0783203125 0.09521484375  L 4.7580078125 1.17720170454545  C 4.28984375 1.33012251420455  3.9810546875 1.71675248579545  3.9810546875 2.14954723011364  L 3.9810546875 5.28009588068182  L 0.7736328125 6.32457386363636  C 0.3087890625 6.47749467329546  0 6.86412464488636  0 7.29691938920455  L 0 10.4736328125  C 0 10.8660333806818  0.2556640625 11.2266956676136  0.6607421875 11.4026988636364  L 3.9810546875 12.8453480113636  C 4.31640625 12.9924982244318  4.71484375 12.9924982244318  5.0501953125 12.8453480113636  L 8.5 11.3449928977273  L 11.9498046875 12.8453480113636  C 12.28515625 12.9924982244318  12.68359375 12.9924982244318  13.0189453125 12.8453480113636  L 16.3392578125 11.4026988636364  C 16.7443359375 11.2266956676136  17 10.8660333806818  17 10.4736328125  L 17 7.29691938920455  Z M 11.88671875 3.18825461647727  L 11.88671875 5.30317826704546  L 9.064453125 6.22358842329546  L 9.064453125 4.25581498579546  L 11.88671875 3.18825461647727  Z M 5.11328125 2.12646484375  L 5.11328125 2.10915305397727  L 8.5 1.00696910511364  L 11.88671875 2.10915305397727  L 11.88671875 2.12646484375  L 8.5 3.32097833806818  L 5.11328125 2.12646484375  Z M 7.90234375 8.33274147727273  L 7.90234375 10.5082563920455  L 5.080078125 11.7345081676136  L 5.080078125 9.45223721590909  L 7.90234375 8.33274147727273  Z M 7.90234375 7.25941051136364  L 7.90234375 7.27672230113636  L 4.515625 8.47123579545455  L 1.12890625 7.27672230113636  L 1.12890625 7.25941051136364  L 4.515625 6.1572265625  L 7.90234375 7.25941051136364  Z M 15.87109375 8.33274147727273  L 15.87109375 10.5082563920455  L 13.048828125 11.7345081676136  L 13.048828125 9.45223721590909  L 15.87109375 8.33274147727273  Z M 15.87109375 7.25941051136364  L 15.87109375 7.27672230113636  L 12.484375 8.47123579545455  L 9.09765625 7.27672230113636  L 9.09765625 7.25941051136364  L 12.484375 6.1572265625  L 15.87109375 7.25941051136364  Z " fill-rule="nonzero" fill="#495058" stroke="none" transform="matrix(1 0 0 1 21 599 )" />
  </g>
</svg>