<?xml version="1.0" encoding="utf-8"?>
<svg version="1.1" xmlns:xlink="http://www.w3.org/1999/xlink" width="15px" height="12px" xmlns="http://www.w3.org/2000/svg">
  <g transform="matrix(1 0 0 1 -22 -719 )">
    <path d="M 12.7488299531981 4.46957878315132  C 12.5054602184087 4.51404056162246  12.2527301092044 4.51404056162246  12.0070202808112 4.46957878315132  L 11.8151326053042 4.80421216848673  C 11.7449297971919 4.92823712948518  11.5951638065523 4.97971918876755  11.4617784711388 4.93057722308892  C 11.185647425897 4.82761310452418  10.9329173166927 4.6801872074883  10.710608424337 4.49531981279251  C 10.6029641185647 4.40639625585023  10.5748829953198 4.24960998439938  10.6450858034321 4.12792511700468  L 10.8369734789392 3.79329173166927  C 10.6755070202808 3.60608424336974  10.5491419656786 3.38845553822152  10.4648985959438 3.15210608424337  L 10.0787831513261 3.15210608424337  C 9.9383775351014 3.15210608424337  9.81669266770671 3.05148205928237  9.79329173166927 2.91107644305772  C 9.74648985959439 2.63026521060842  9.74414976599064 2.33541341653666  9.79329173166927 2.04290171606865  C 9.81669266770671 1.902496099844  9.9383775351014 1.79953198127924  10.0787831513261 1.79953198127924  L 10.4648985959438 1.79953198127924  C 10.5491419656786 1.56318252730109  10.6755070202808 1.34555382215289  10.8369734789392 1.15834633385336  L 10.6450858034321 0.823712948517948  C 10.5748829953198 0.702028081123245  10.600624024961 0.545241809672393  10.710608424337 0.456318252730114  C 10.9329173166927 0.271450858034325  11.1879875195008 0.124024960998446  11.4617784711388 0.0210608424336897  C 11.5951638065523 -0.0280811232449366  11.7449297971919 0.02340093603745  11.8151326053042 0.147425897035879  L 12.0070202808112 0.48205928237129  C 12.2527301092044 0.43759750390015  12.503120124805 0.43759750390015  12.7488299531981 0.48205928237129  L 12.9407176287051 0.147425897035879  C 13.0109204368175 0.023400936037433  13.1606864274571 -0.0280811232449366  13.2940717628705 0.0210608424336897  C 13.5702028081123 0.124024960998446  13.8229329173167 0.271450858034325  14.0452418096724 0.456318252730114  C 14.1528861154446 0.545241809672393  14.1809672386895 0.702028081123245  14.1107644305772 0.823712948517948  L 13.9188767550702 1.15834633385336  C 14.0803432137285 1.34555382215289  14.2067082683307 1.56318252730109  14.2909516380655 1.79953198127924  L 14.6770670826833 1.79953198127924  C 14.817472698908 1.79953198127924  14.9391575663027 1.90015600624026  14.9625585023401 2.04056162246491  C 15.009360374415 2.3213728549142  15.0117004680187 2.61622464898596  14.9625585023401 2.90873634945398  C 14.9391575663027 3.04914196567863  14.817472698908 3.15210608424337  14.6770670826833 3.15210608424337  L 14.2909516380655 3.15210608424337  C 14.2067082683307 3.38845553822152  14.0803432137285 3.60608424336974  13.9188767550702 3.79329173166927  L 14.1107644305772 4.12792511700468  C 14.1809672386895 4.24960998439938  14.1552262090484 4.40639625585023  14.0452418096724 4.49531981279251  C 13.8229329173167 4.6801872074883  13.5678627145086 4.82761310452418  13.2940717628705 4.93057722308892  C 13.1606864274571 4.97971918876755  13.0109204368175 4.92823712948518  12.9407176287051 4.80421216848673  L 12.7488299531981 4.46957878315132  Z M 12.996879875195 1.85803432137286  C 12.0959438377535 1.16302652106085  11.0686427457098 2.19266770670827  11.7613104524181 3.09360374414977  C 12.6622464898596 3.78627145085804  13.6895475819033 2.75897035881435  12.996879875195 1.85803432137286  Z M 9.06318252730109 5.20904836193447  C 9.15444617784712 5.70046801872076  9.15444617784712 6.20358814352574  9.06318252730109 6.69500780031202  L 9.85179407176287 7.08814352574103  C 10.088143525741 7.22386895475819  10.1911076443058 7.51170046801872  10.097503900156 7.76911076443058  C 9.88923556942278 8.33541341653666  9.47971918876755 8.85491419656787  9.100624024961 9.30889235569423  C 8.92745709828393 9.51716068642746  8.62792511700468 9.56864274570983  8.39157566302652 9.43291731669266  L 7.71060842433697 9.03978159126365  C 7.33619344773791 9.3603744149766  6.90093603744149 9.61544461778471  6.42589703588143 9.78159126365055  L 6.42589703588143 10.5678627145086  C 6.42589703588143 10.8393135725429  6.23166926677067 11.0733229329173  5.96489859594383 11.1201248049922  C 5.38923556942278 11.2184087363494  4.78549141965679 11.2230889235569  4.18876755070203 11.1201248049922  C 3.91965678627145 11.0733229329173  3.7207488299532 10.8416536661466  3.7207488299532 10.5678627145086  L 3.7207488299532 9.78159126365053  C 3.24570982839313 9.61310452418097  2.81045241809672 9.3603744149766  2.43603744149766 9.03978159126365  L 1.75507020280811 9.43057722308892  C 1.5210608424337 9.56630265210608  1.2191887675507 9.51482059282371  1.04602184087364 9.30655226209047  C 0.666926677067079 8.85257410296412  0.26677067082683 8.33307332293292  0.0585023400935995 7.76911076443058  C -0.035101404056158 7.51404056162246  0.0678627145085812 7.22620904836193  0.30421216848674 7.08814352574103  L 1.08346333853354 6.69500780031202  C 0.992199687987517 6.20592823712948  0.992199687987517 5.7028081123245  1.08346333853354 5.21138845553822  L 0.30421216848674 4.81591263650546  C 0.0678627145085812 4.6801872074883  -0.0374414976599098 4.39235569422777  0.0585023400935995 4.13728549141965  C 0.26677067082683 3.57098283931357  0.666926677067079 3.05148205928237  1.04602184087364 2.597503900156  C 1.2191887675507 2.38923556942278  1.51872074882996 2.33775351014041  1.75507020280811 2.47347893915757  L 2.43603744149766 2.86661466458658  C 2.81045241809672 2.54602184087363  3.24570982839313 2.29095163806552  3.7207488299532 2.12480499219968  L 3.7207488299532 1.3361934477379  C 3.7207488299532 1.06708268330734  3.91263650546022 0.833073322932921  4.17940717628705 0.786271450858038  C 4.75507020280811 0.687987519500786  5.36115444617785 0.683307332293299  5.9578783151326 0.783931357254295  C 6.22698907956319 0.830733229329178  6.42589703588143 1.06240249609985  6.42589703588143 1.3361934477379  L 6.42589703588143 2.12246489859594  C 6.9009360374415 2.29095163806552  7.33619344773791 2.54368174726989  7.71060842433697 2.86427457098284  L 8.39157566302652 2.47113884555383  C 8.62558502340094 2.33541341653666  8.92745709828393 2.38689547581903  9.100624024961 2.59516380655226  C 9.47971918876755 3.04914196567863  9.87753510140406 3.56864274570983  10.0858034321373 4.13494539781591  C 10.179407176287 4.39001560062403  10.088143525741 4.67784711388456  9.85179407176287 4.81591263650546  L 9.06318252730109 5.20904836193447  Z M 3.83775351014041 4.71528861154447  C 2.45241809672387 6.51716068642746  4.50936037441497 8.57410296411857  6.31123244929797 7.18876755070202  C 7.6965678627145 5.38689547581903  5.6396255850234 3.32995319812792  3.83775351014041 4.71528861154447  Z M 12.7488299531981 11.4641185647426  C 12.5054602184087 11.5085803432137  12.2527301092044 11.5085803432137  12.0070202808112 11.4641185647426  L 11.8151326053042 11.798751950078  C 11.7449297971919 11.9227769110764  11.5951638065523 11.9742589703588  11.4617784711388 11.9251170046802  C 11.185647425897 11.8221528861154  10.9329173166927 11.6747269890796  10.710608424337 11.4898595943838  C 10.6029641185647 11.4009360374415  10.5748829953198 11.2441497659906  10.6450858034321 11.1224648985959  L 10.8369734789392 10.7878315132605  C 10.6755070202808 10.600624024961  10.5491419656786 10.3829953198128  10.4648985959438 10.1466458658346  L 10.0787831513261 10.1466458658346  C 9.9383775351014 10.1466458658346  9.81669266770671 10.0460218408736  9.79329173166927 9.90561622464898  C 9.74648985959439 9.62480499219968  9.74414976599064 9.32995319812792  9.79329173166927 9.03744149765991  C 9.81669266770671 8.89703588143526  9.9383775351014 8.79407176287052  10.0787831513261 8.79407176287052  L 10.4648985959438 8.79407176287052  C 10.5491419656786 8.55772230889234  10.6755070202808 8.34009360374415  10.8369734789392 8.15288611544462  L 10.6450858034321 7.81825273010921  C 10.5748829953198 7.69656786271451  10.600624024961 7.53978159126365  10.710608424337 7.45085803432137  C 10.9329173166927 7.26599063962558  11.1879875195008 7.11856474258971  11.4617784711388 7.01560062402497  C 11.5951638065523 6.96645865834634  11.7449297971919 7.01794071762871  11.8151326053042 7.14196567862714  L 12.0070202808112 7.47659906396255  C 12.2527301092044 7.43213728549141  12.503120124805 7.43213728549141  12.7488299531981 7.47659906396255  L 12.9407176287051 7.14196567862714  C 13.0109204368175 7.01794071762871  13.1606864274571 6.96645865834634  13.2940717628705 7.01560062402497  C 13.5702028081123 7.11856474258971  13.8229329173167 7.26599063962558  14.0452418096724 7.45085803432137  C 14.1528861154446 7.53978159126365  14.1809672386896 7.69656786271451  14.1107644305772 7.81825273010921  L 13.9188767550702 8.15288611544462  C 14.0803432137286 8.34009360374415  14.2067082683307 8.55772230889236  14.2909516380655 8.79407176287052  L 14.6770670826833 8.79407176287052  C 14.817472698908 8.79407176287052  14.9391575663027 8.89469578783152  14.9625585023401 9.03510140405617  C 15.009360374415 9.31591263650547  15.0117004680187 9.61076443057722  14.9625585023401 9.90327613104524  C 14.9391575663027 10.0436817472699  14.817472698908 10.1466458658346  14.6770670826833 10.1466458658346  L 14.2909516380655 10.1466458658346  C 14.2067082683307 10.3829953198128  14.0803432137286 10.600624024961  13.9188767550702 10.7878315132605  L 14.1107644305772 11.1224648985959  C 14.1809672386896 11.2441497659906  14.1552262090484 11.4009360374415  14.0452418096724 11.4898595943838  C 13.8229329173167 11.6747269890796  13.5678627145086 11.8221528861154  13.2940717628705 11.9251170046802  C 13.1606864274571 11.9742589703588  13.0109204368175 11.9227769110764  12.9407176287051 11.798751950078  L 12.7488299531981 11.4641185647426  Z M 12.996879875195 8.85023400936038  C 12.0959438377535 8.15756630265211  11.0686427457098 9.18486739469579  11.7613104524181 10.0858034321373  C 12.6622464898596 10.7784711388456  13.6895475819033 9.75117004680187  12.996879875195 8.85023400936038  Z " fill-rule="nonzero" fill="#495058" stroke="none" transform="matrix(1 0 0 1 22 719 )" />
  </g>
</svg>