<?xml version="1.0" encoding="utf-8"?>
<svg version="1.1" xmlns:xlink="http://www.w3.org/1999/xlink" width="15px" height="11px" xmlns="http://www.w3.org/2000/svg">
  <g transform="matrix(1 0 0 1 -21 -780 )">
    <path d="M 0.75 3.14285714285714  C 0.75 4.00959821428571  1.42265625 4.71428571428571  2.25 4.71428571428571  C 3.07734375 4.71428571428571  3.75 4.00959821428571  3.75 3.14285714285714  C 3.75 2.27611607142857  3.07734375 1.57142857142857  2.25 1.57142857142857  C 1.42265625 1.57142857142857  0.75 2.27611607142857  0.75 3.14285714285714  Z M 11.25 3.14285714285714  C 11.25 4.00959821428571  11.92265625 4.71428571428571  12.75 4.71428571428571  C 13.57734375 4.71428571428571  14.25 4.00959821428571  14.25 3.14285714285714  C 14.25 2.27611607142857  13.57734375 1.57142857142857  12.75 1.57142857142857  C 11.92265625 1.57142857142857  11.25 2.27611607142857  11.25 3.14285714285714  Z M 15 7.07142857142857  C 15 6.2046875  14.32734375 5.5  13.5 5.5  L 12 5.5  C 11.5875 5.5  11.21484375 5.67433035714286  10.94296875 5.95669642857143  C 11.8875 6.49933035714286  12.5578125 7.47901785714286  12.703125 8.64285714285714  L 14.25 8.64285714285714  C 14.66484375 8.64285714285714  15 8.29174107142857  15 7.85714285714286  L 15 7.07142857142857  Z M 4.875 2.75  C 4.875 4.26986607142857  6.04921875 5.5  7.5 5.5  C 8.95078125 5.5  10.125 4.26986607142857  10.125 2.75  C 10.125 1.23013392857143  8.95078125 0  7.5 0  C 6.04921875 0  4.875 1.23013392857143  4.875 2.75  Z M 12 9.11428571428572  C 12 7.55267857142857  10.790625 6.28571428571429  9.3 6.28571428571429  L 9.10546875 6.28571428571429  C 8.61796875 6.53125  8.0765625 6.67857142857143  7.5 6.67857142857143  C 6.9234375 6.67857142857143  6.384375 6.53125  5.89453125 6.28571428571429  L 5.7 6.28571428571429  C 4.209375 6.28571428571429  3 7.55267857142857  3 9.11428571428572  L 3 9.82142857142857  C 3 10.4720982142857  3.50390625 11  4.125 11  L 10.875 11  C 11.49609375 11  12 10.4720982142857  12 9.82142857142857  L 12 9.11428571428572  Z M 2.29453125 8.64285714285714  C 2.4421875 7.47901785714286  3.1125 6.49933035714286  4.05703125 5.95669642857143  C 3.78515625 5.67433035714286  3.4125 5.5  3 5.5  L 1.5 5.5  C 0.67265625 5.5  0 6.2046875  0 7.07142857142857  L 0 7.85714285714286  C 0 8.29174107142857  0.33515625 8.64285714285714  0.75 8.64285714285714  L 2.29453125 8.64285714285714  Z " fill-rule="nonzero" fill="#495058" stroke="none" transform="matrix(1 0 0 1 21 780 )" />
  </g>
</svg>