<?xml version="1.0" encoding="utf-8"?>
<svg version="1.1" xmlns:xlink="http://www.w3.org/1999/xlink" width="15px" height="11px" xmlns="http://www.w3.org/2000/svg">
  <g transform="matrix(1 0 0 1 -21 -259 )">
    <path d="M 1.875 9  L 14.6484375 9  C 14.841796875 9.04605263157895  15 9.19870476973684  15 9.38527960526316  L 15 10.5160361842105  C 15 10.7026110197368  14.841796875 10.8552631578947  14.6484375 10.8552631578947  L 0.3515625 10.8552631578947  C 0.158203125 10.8552631578947  0 10.7026110197368  0 10.5160361842105  L 0 0.339226973684211  C 0 0.152652138157895  0.158203125 0  0.3515625 0  L 1.5234375 0  C 1.716796875 0  1.875 0.152652138157895  1.875 0.339226973684211  L 1.875 9  Z M 5.2734375 8.14144736842105  C 5.466796875 8.14144736842105  5.625 7.98879523026316  5.625 7.80222039473684  L 5.625 5.76685855263158  C 5.625 5.58028371710526  5.466796875 5.42763157894737  5.2734375 5.42763157894737  L 4.1015625 5.42763157894737  C 3.908203125 5.42763157894737  3.75 5.58028371710526  3.75 5.76685855263158  L 3.75 7.80222039473684  C 3.75 7.98879523026316  3.908203125 8.14144736842105  4.1015625 8.14144736842105  L 5.2734375 8.14144736842105  Z M 10.8984375 8.14144736842105  C 11.091796875 8.14144736842105  11.25 7.98879523026316  11.25 7.80222039473684  L 11.25 3.95764802631579  C 11.25 3.77107319078947  11.091796875 3.61842105263158  10.8984375 3.61842105263158  L 9.7265625 3.61842105263158  C 9.533203125 3.61842105263158  9.375 3.77107319078947  9.375 3.95764802631579  L 9.375 7.80222039473684  C 9.375 7.98879523026316  9.533203125 8.14144736842105  9.7265625 8.14144736842105  L 10.8984375 8.14144736842105  Z M 8.0859375 8.14144736842105  C 8.279296875 8.14144736842105  8.4375 7.98879523026316  8.4375 7.80222039473684  L 8.4375 2.1484375  C 8.4375 1.96186266447368  8.279296875 1.80921052631579  8.0859375 1.80921052631579  L 6.9140625 1.80921052631579  C 6.720703125 1.80921052631579  6.5625 1.96186266447368  6.5625 2.1484375  L 6.5625 7.80222039473684  C 6.5625 7.98879523026316  6.720703125 8.14144736842105  6.9140625 8.14144736842105  L 8.0859375 8.14144736842105  Z M 13.7109375 8.14144736842105  C 13.904296875 8.14144736842105  14.0625 7.98879523026316  14.0625 7.80222039473684  L 14.0625 1.24383223684211  C 14.0625 1.05725740131579  13.904296875 0.904605263157895  13.7109375 0.904605263157895  L 12.5390625 0.904605263157895  C 12.345703125 0.904605263157895  12.1875 1.05725740131579  12.1875 1.24383223684211  L 12.1875 7.80222039473684  C 12.1875 7.98879523026316  12.345703125 8.14144736842105  12.5390625 8.14144736842105  L 13.7109375 8.14144736842105  Z " fill-rule="nonzero" fill="#495058" stroke="none" transform="matrix(1 0 0 1 21 259 )" />
  </g>
</svg>