<?xml version="1.0" encoding="utf-8"?>
<svg version="1.1" xmlns:xlink="http://www.w3.org/1999/xlink" width="13px" height="15px" xmlns="http://www.w3.org/2000/svg">
  <g transform="matrix(1 0 0 1 -23 -227 )">
    <path d="M 12.8039396737458 3.8859649122807  C 12.8039396737458 3.51461988304093  12.6338873499538 3.15497076023391  12.3337950138504 2.89181286549707  L 9.53626756950857 0.438596491228074  C 9.23617523340514 0.175438596491225  8.82938340002052 0.026315789473685  8.40591977018569 0.026315789473685  L 1.60049245921822 0.026315789473685  C 0.716887247358162 0.0292397660818722  0 0.657894736842107  0 1.43274853801169  L 0 13.5964912280702  C 0 14.3713450292398  0.716887247358162 15  1.60049245921822 15  L 11.2034472145275 15  C 12.0870524263876 15  12.8039396737458 14.3713450292398  12.8039396737458 13.5964912280702  L 12.8039396737458 3.8859649122807  Z M 8.53595978249718 1.546783625731  L 11.0734072022161 3.7719298245614  L 8.53595978249718 3.7719298245614  L 8.53595978249718 1.546783625731  Z M 11.2034472145275 13.5964912280702  L 1.60049245921822 13.5964912280702  L 1.60049245921822 1.43274853801169  L 6.93546732327895 1.43274853801169  L 6.93546732327895 4.47368421052632  C 6.93546732327895 4.86257309941521  7.29224376731301 5.17543859649123  7.73571355288806 5.17543859649123  L 11.2034472145275 5.17543859649123  L 11.2034472145275 13.5964912280702  Z M 9.35954652713655 10.5263157894737  C 10.2098081460962 10.5263157894737  10.2931671283472 9.70175438596491  9.94305940289319 9.39473684210527  C 9.53626756950857 9.04385964912281  8.37591053657535 9.14035087719299  7.79573202010875 9.2046783625731  C 7.22222222222222 8.89766081871345  6.83877090386786 8.47368421052632  6.56868780137477 7.85087719298246  C 6.69872781368626 7.38011695906432  6.90545808966861 6.66374269005848  6.74874320303683 6.21345029239766  C 6.60870011285523 5.44736842105263  5.48835539140248 5.52339181286549  5.32830614548066 6.04093567251462  C 5.18159433671899 6.51169590643275  5.3149687083205 7.16666666666667  5.56171129578332 8.00292397660818  C 5.22827536677952 8.70175438596491  4.73145583256386 9.64035087719298  4.38134810710988 10.1783625730994  C 3.71447624910229 10.4795321637427  2.81419924079204 10.9444444444444  2.68082486919052 11.5292397660819  C 2.57079101261926 11.9912280701754  3.54775828460039 13.1432748538012  5.21827228890941 10.6169590643275  C 5.96516876987791 10.4005847953216  6.77875243664717 10.1345029239766  7.49897404329537 10.0292397660819  C 8.12916794911255 10.327485380117  8.86606135221093 10.5263157894737  9.35954652713655 10.5263157894737  Z M 4.35133887349954 10.6461988304094  C 3.71781060839232 11.5321637426901  3.337693649328 11.6900584795322  3.337693649328 11.6695906432749  C 3.50774597311994 11.2690058479532  4.1546116753873 10.8070175438596  4.35133887349954 10.6461988304094  Z M 6.11854929721966 7.28947368421053  C 5.97183748845798 6.88304093567251  5.97517184774802 6.09649122807018  6.05853082999897 6.09649122807018  C 6.30527341746178 6.09649122807018  6.28193290243151 7.03508771929825  6.11854929721966 7.28947368421053  Z M 7.07217605417051 9.52923976608187  C 6.37862932184261 9.65497076023392  5.77511029034575 9.91228070175439  5.24494716322971 10.0906432748538  C 5.56838001436339 9.59649122807017  5.84513183543655 9.00877192982456  6.06853390786909 8.49122807017544  C 6.34528572894223 8.9327485380117  6.69872781368626 9.28654970760234  7.07217605417051 9.52923976608187  Z M 8.3892479737355 9.71637426900584  C 9.55960808453883 9.64035087719298  9.75300092336103 9.87426900584795  9.63296398891966 9.94444444444445  C 9.63296398891966 9.94444444444445  9.46624602441777 10.1198830409357  8.3892479737355 9.71637426900584  Z " fill-rule="nonzero" fill="#008080" stroke="none" transform="matrix(1 0 0 1 23 227 )" />
  </g>
</svg>