<?xml version="1.0" encoding="utf-8"?>
<svg version="1.1" xmlns:xlink="http://www.w3.org/1999/xlink" width="14px" height="14px" xmlns="http://www.w3.org/2000/svg">
  <g transform="matrix(1 0 0 1 -22 -58 )">
    <path d="M 11.7362218370884 8.44242989823579  C 11.801733102253 8.51397591432254  11.840554592721 8.61973959027686  11.840554592721 8.73172465893437  L 11.840554592721 13.1893525307737  C 11.840554592721 13.6030751455362  11.5809358752166 13.9359196551571  11.2582322357019 13.9359196551571  L 8.44367417677643 13.9359196551571  C 8.28353552859619 13.9359196551571  8.1525129982669 13.7679420521708  8.1525129982669 13.5626360929654  L 8.1525129982669 10.0786561791761  C 8.1525129982669 9.87335021997068  8.02149046793761 9.70537261698441  7.86135181975737 9.70537261698441  L 6.11438474870018 9.70537261698441  C 5.95424610051993 9.70537261698441  5.82322357019064 9.87335021997068  5.82322357019064 10.0786561791761  L 5.82322357019064 13.5626360929654  C 5.82322357019064 13.7679420521708  5.69220103986135 13.9359196551571  5.53206239168111 13.9359196551571  L 2.71750433275563 13.9359196551571  C 2.3948006932409 13.9359196551571  2.13518197573657 13.6030751455362  2.13518197573657 13.1893525307737  L 2.13518197573657 8.73172465893437  C 2.13518197573657 8.61973959027686  2.1740034662045 8.51397591432254  2.2419410745234 8.44242989823579  L 6.80346620450607 3.62707194596276  C 6.9102253032929 3.51508687730525  7.06551126516464 3.51508687730525  7.17469670710572 3.62707194596276  L 11.7362218370884 8.44242989823579  Z M 13.9102253032929 7.36301826423144  C 14.0121317157712 7.20126205394836  13.9927209705373 6.96795982757854  13.8689774696707 6.83731058081146  L 11.840554592721 4.69404079456074  L 11.840554592721 0.385726347598095  C 11.840554592721 0.180420388392658  11.7095320623917 0.0124427854063895  11.5493934142114 0.0124427854063895  L 10.1906412478336 0.0124427854063895  C 10.0305025996534 0.0124427854063895  9.89948006932409 0.180420388392658  9.89948006932409 0.385726347598095  L 9.89948006932409 2.64409189885793  L 7.72790294627383 0.351508687730529  C 7.29844020797227 -0.102652979602719  6.67729636048527 -0.102652979602719  6.24783362218371 0.351508687730529  L 0.10675909878683 6.83731058081146  C -0.0169844020797257 6.96795982757854  -0.0339688041594434 7.20437275029996  0.0679376083188947 7.36301826423144  L 0.686655112651649 8.32733413322668  C 0.788561525129979 8.48597964715816  0.972963604852688 8.50775452161934  1.09670710571924 8.37710527485224  L 6.80346620450607 2.35168644180776  C 6.9102253032929 2.23970137315026  7.06551126516464 2.23970137315026  7.17469670710572 2.35168644180776  L 12.8814558058925 8.37710527485224  C 13.0051993067591 8.50775452161934  13.1896013864818 8.48597964715816  13.2915077989601 8.32733413322668  L 13.9102253032929 7.36301826423144  Z " fill-rule="nonzero" fill="#495058" stroke="none" transform="matrix(1 0 0 1 22 58 )" />
  </g>
</svg>