<?xml version="1.0" encoding="utf-8"?>
<svg version="1.1" xmlns:xlink="http://www.w3.org/1999/xlink" width="13px" height="17px" xmlns="http://www.w3.org/2000/svg">
  <g transform="matrix(1 0 0 1 -23 -879 )">
    <path d="M 12.8039396737458 4.40409356725146  C 12.8039396737458 3.98323586744639  12.6338873499538 3.5756335282651  12.3337950138504 3.27738791423002  L 9.53626756950857 0.497076023391817  C 9.23617523340514 0.198830409356721  8.82938340002052 0.0298245614035096  8.40591977018569 0.0298245614035096  L 1.60049245921822 0.0298245614035096  C 0.716887247358162 0.0331384015594551  0 0.745614035087721  0 1.62378167641325  L 0 15.4093567251462  C 0 16.2875243664717  0.716887247358162 17  1.60049245921822 17  L 11.2034472145275 17  C 12.0870524263876 17  12.8039396737458 16.2875243664717  12.8039396737458 15.4093567251462  L 12.8039396737458 4.40409356725146  Z M 8.53595978249718 1.75302144249513  L 11.0734072022161 4.27485380116959  L 8.53595978249718 4.27485380116959  L 8.53595978249718 1.75302144249513  Z M 11.2034472145275 15.4093567251462  L 1.60049245921822 15.4093567251462  L 1.60049245921822 1.62378167641325  L 6.93546732327895 1.62378167641325  L 6.93546732327895 5.07017543859649  C 6.93546732327895 5.51091617933723  7.29224376731301 5.86549707602339  7.73571355288806 5.86549707602339  L 11.2034472145275 5.86549707602339  L 11.2034472145275 15.4093567251462  Z M 9.35954652713655 11.9298245614035  C 10.2098081460962 11.9298245614035  10.2931671283472 10.9953216374269  9.94305940289319 10.6473684210526  C 9.53626756950857 10.2497076023392  8.37591053657535 10.3590643274854  7.79573202010875 10.4319688109162  C 7.22222222222222 10.0840155945419  6.83877090386786 9.60350877192983  6.56868780137477 8.89766081871345  C 6.69872781368626 8.36413255360623  6.90545808966861 7.55224171539961  6.74874320303683 7.04191033138401  C 6.60870011285523 6.17368421052632  5.48835539140248 6.25984405458089  5.32830614548066 6.84639376218324  C 5.18159433671899 7.37992202729045  5.3149687083205 8.12222222222222  5.56171129578332 9.06998050682261  C 5.22827536677952 9.86198830409357  4.73145583256386 10.925730994152  4.38134810710988 11.535477582846  C 3.71447624910229 11.8768031189084  2.81419924079204 12.4037037037037  2.68082486919052 13.0664717348928  C 2.57079101261926 13.5900584795322  3.54775828460039 14.8957115009747  5.21827228890941 12.0325536062378  C 5.96516876987791 11.7873294346979  6.77875243664717 11.4857699805068  7.49897404329537 11.3664717348928  C 8.12916794911255 11.7044834307992  8.86606135221093 11.9298245614035  9.35954652713655 11.9298245614035  Z M 4.35133887349954 12.0656920077973  C 3.71781060839232 13.0697855750487  3.337693649328 13.2487329434698  3.337693649328 13.2255360623782  C 3.50774597311994 12.7715399610136  4.1546116753873 12.2479532163743  4.35133887349954 12.0656920077973  Z M 6.11854929721966 8.26140350877193  C 5.97183748845798 7.80077972709552  5.97517184774802 6.9093567251462  6.05853082999897 6.9093567251462  C 6.30527341746178 6.9093567251462  6.28193290243151 7.97309941520468  6.11854929721966 8.26140350877193  Z M 7.07217605417051 10.7998050682261  C 6.37862932184261 10.9423001949318  5.77511029034575 11.233918128655  5.24494716322971 11.4360623781676  C 5.56838001436339 10.8760233918129  5.84513183543655 10.2099415204678  6.06853390786909 9.6233918128655  C 6.34528572894223 10.1237816764133  6.69872781368626 10.5247563352827  7.07217605417051 10.7998050682261  Z M 8.3892479737355 11.0118908382066  C 9.55960808453883 10.925730994152  9.75300092336103 11.1908382066277  9.63296398891966 11.2703703703704  C 9.63296398891966 11.2703703703704  9.46624602441777 11.4692007797271  8.3892479737355 11.0118908382066  Z " fill-rule="nonzero" fill="#495058" stroke="none" transform="matrix(1 0 0 1 23 879 )" />
  </g>
</svg>