<?xml version="1.0" encoding="utf-8"?>
<svg version="1.1" xmlns:xlink="http://www.w3.org/1999/xlink" width="12px" height="12px" xmlns="http://www.w3.org/2000/svg">
  <g transform="matrix(1 0 0 1 -23 -448 )">
    <path d="M 4.51461988304093 2.31198150414797  C 4.51461988304093 2.55133958928329  4.68304093567251 2.74717802257582  4.88888888888889 2.74717802257582  L 11.6257309941521 2.74717802257582  C 11.8315789473684 2.74717802257582  12 2.55133958928329  12 2.31198150414797  L 12 1.22399020807834  C 12 0.984632122943013  11.8315789473684 0.788793689650481  11.6257309941521 0.788793689650481  L 4.88888888888889 0.788793689650481  C 4.68304093567251 0.788793689650481  4.51461988304093 0.984632122943013  4.51461988304093 1.22399020807834  L 4.51461988304093 2.31198150414797  Z M 4.51461988304093 6.66394668842649  C 4.51461988304093 6.90330477356182  4.68304093567251 7.09914320685434  4.88888888888889 7.09914320685434  L 11.6257309941521 7.09914320685434  C 11.8315789473684 7.09914320685434  12 6.90330477356182  12 6.66394668842649  L 12 5.57595539235686  C 12 5.33659730722154  11.8315789473684 5.14075887392901  11.6257309941521 5.14075887392901  L 4.88888888888889 5.14075887392901  C 4.68304093567251 5.14075887392901  4.51461988304093 5.33659730722154  4.51461988304093 5.57595539235686  L 4.51461988304093 6.66394668842649  Z M 4.51461988304093 11.015911872705  C 4.51461988304093 11.2552699578403  4.68304093567251 11.4511083911329  4.88888888888889 11.4511083911329  L 11.6257309941521 11.4511083911329  C 11.8315789473684 11.4511083911329  12 11.2552699578403  12 11.015911872705  L 12 9.92792057663538  C 12 9.68856249150007  11.8315789473684 9.49272405820753  11.6257309941521 9.49272405820753  L 4.88888888888889 9.49272405820753  C 4.68304093567251 9.49272405820753  4.51461988304093 9.68856249150007  4.51461988304093 9.92792057663538  L 4.51461988304093 11.015911872705  Z M 2.64327485380117 10.4719162246702  C 2.64327485380117 9.75112199102407  2.14035087719298 9.16632666938665  1.52046783625731 9.16632666938665  C 0.900584795321636 9.16632666938665  0.383625730994149 9.75112199102407  0.383625730994149 10.4719162246702  C 0.383625730994149 11.1927104583163  0.900584795321636 11.7775057799538  1.52046783625731 11.7775057799538  C 2.14035087719298 11.7775057799538  2.64327485380117 11.1927104583163  2.64327485380117 10.4719162246702  Z M 3.68654970760234 0.571195430436557  C 3.79415204678362 0.699034407724742  3.79415204678362 0.90575275397797  3.68421052631579 1.03359173126615  L 1.9953216374269 2.99741602067183  L 1.63040935672514 3.42173262613899  C 1.52046783625731 3.54957160342717  1.32865497076023 3.54957160342717  1.2187134502924 3.42173262613899  L 0.10526315789474 2.13246294029647  C -0.00467836257309955 2.0046239630083  -0.00467836257309955 1.79790561675507  0.10526315789474 1.67006663946688  L 0.472514619883041 1.24303005575956  C 0.58245614035088 1.11519107847137  0.760233918128656 1.11519107847137  0.870175438596489 1.24303005575956  L 1.40116959064327 1.84414524683802  L 2.89122807017544 0.122399020807837  C 3.00116959064328 -0.00543995648034831  3.17894736842105 -0.00543995648034831  3.28888888888889 0.122399020807837  L 3.68654970760234 0.571195430436557  Z M 3.68654970760234 4.91500067999456  C 3.79415204678362 5.04011967904257  3.79415204678362 5.2468380252958  3.68421052631579 5.37467700258398  L 1.9953216374269 7.33850129198967  L 1.62807017543859 7.765537875697  C 1.51812865497076 7.89337685298518  1.32631578947368 7.89337685298518  1.21637426900585 7.765537875697  L 0.10526315789474 6.47354821161431  C -0.00467836257309955 6.34570923432612  -0.00467836257309955 6.1389908880729  0.10526315789474 6.01115191078472  L 0.472514619883041 5.58411532707738  C 0.58245614035088 5.45627634978921  0.760233918128656 5.45627634978921  0.870175438596489 5.58411532707738  L 1.40116959064327 6.18523051815586  L 2.89122807017544 4.45260437916497  C 3.00116959064328 4.32476540187679  3.17894736842105 4.32476540187679  3.28888888888889 4.45260437916497  L 3.68654970760234 4.91500067999456  Z " fill-rule="nonzero" fill="#495058" stroke="none" transform="matrix(1 0 0 1 23 448 )" />
  </g>
</svg>