<?xml version="1.0" encoding="utf-8"?>
<svg version="1.1" xmlns:xlink="http://www.w3.org/1999/xlink" width="13px" height="12px" xmlns="http://www.w3.org/2000/svg">
  <g transform="matrix(1 0 0 1 -260 -101 )">
    <path d="M 12.3923512747875 0  C 12.6501416430595 0  12.831208687441 0.110795454545455  12.935552407932 0.332386363636364  C 13.039896128423 0.565340909090908  12.9969310670444 0.764204545454545  12.806657223796 0.928977272727272  L 8.26770538243626 5.13068181818182  L 8.26770538243626 11.4545454545455  C 8.26770538243626 11.6931818181818  8.14801699716714 11.8607954545455  7.9086402266289 11.9573863636364  C 7.82884796978281 11.9857954545455  7.75212464589235 12  7.67847025495751 12  C 7.51274787535411 12  7.37464589235128 11.9460227272727  7.26416430594901 11.8380681818182  L 4.90722379603399 9.65625  C 4.79060434372049 9.54829545454545  4.73229461756374 9.42045454545454  4.73229461756374 9.27272727272727  L 4.73229461756374 5.13068181818182  L 0.193342776203966 0.928977272727272  C 0.00306893295561851 0.764204545454545  -0.0398961284230406 0.565340909090908  0.0644475920679887 0.332386363636364  C 0.168791312559018 0.110795454545455  0.34985835694051 0  0.607648725212465 0  L 12.3923512747875 0  Z " fill-rule="nonzero" fill="#2b97be" stroke="none" transform="matrix(1 0 0 1 260 101 )" />
  </g>
</svg>