<?xml version="1.0" encoding="utf-8"?>
<svg version="1.1" xmlns:xlink="http://www.w3.org/1999/xlink" width="12px" height="16px" xmlns="http://www.w3.org/2000/svg">
  <g transform="matrix(1 0 0 1 -675 -347 )">
    <path d="M 11.8190212373038 4.14502923976608  C 11.8190212373038 3.74892787524366  11.6620498614958 3.36530214424951  11.3850415512465 3.08460038986354  L 8.80270852570021 0.467836257309946  C 8.5257002154509 0.187134502923973  8.1502000615574 0.0280701754385973  7.75931055709449 0.0280701754385973  L 1.47737765466297 0.0280701754385973  C 0.661742074484458 0.0311890838206637  0 0.701754385964914  0 1.52826510721247  L 0 14.5029239766082  C 0 15.3294346978557  0.661742074484458 16  1.47737765466297 16  L 10.3416435826408 16  C 11.1572791628193 16  11.8190212373038 15.3294346978557  11.8190212373038 14.5029239766082  L 11.8190212373038 4.14502923976608  Z M 7.87934749153586 1.64990253411306  L 10.2216066481994 4.02339181286549  L 7.87934749153586 4.02339181286549  L 7.87934749153586 1.64990253411306  Z M 10.3416435826408 14.5029239766082  L 1.47737765466297 14.5029239766082  L 1.47737765466297 1.52826510721247  L 6.40196983687288 1.52826510721247  L 6.40196983687288 4.7719298245614  C 6.40196983687288 5.18674463937622  6.73130193905817 5.52046783625731  7.14065866420437 5.52046783625731  L 10.3416435826408 5.52046783625731  L 10.3416435826408 14.5029239766082  Z M 8.31948291782086 7.57894736842105  C 8.46414281317328 7.32943469785575  8.28562634656817 7.01754385964912  8.0024622960911 7.01754385964912  L 7.11603570329332 7.01754385964912  C 6.98060941828255 7.01754385964912  6.8574946137273 7.09239766081872  6.79285934133579 7.21403508771929  C 6.23884272083718 8.24639376218323  6.10957217605417 8.5364522417154  5.91258848876577 9.01364522417154  C 5.48476454293628 8.10604288499026  5.70021545090797 8.47407407407407  5.03231763619575 7.21403508771929  C 4.96768236380425 7.09239766081872  4.84148968913512 7.01754385964912  4.70606340412435 7.01754385964912  L 3.81655894121268 7.01754385964912  C 3.53031702062173 7.01754385964912  3.3548784241305 7.32943469785575  3.49646044936904 7.57894736842105  L 4.92151431209603 10.0116959064328  L 3.49646044936904 12.4444444444444  C 3.35180055401662 12.6939571150097  3.53031702062173 13.0058479532164  3.81655894121268 13.0058479532164  L 4.70606340412435 13.0058479532164  C 4.84148968913511 13.0058479532164  4.96460449369036 12.9309941520468  5.02923976608187 12.8093567251462  C 5.69713758079409 11.5617933723197  5.73714989227455 11.4058479532164  5.90951061865189 11.009746588694  C 6.36811326562018 11.951656920078  6.09110495537088 11.5056530214425  6.78978147122191 12.8093567251462  C 6.85441674361342 12.9309941520468  6.98060941828254 13.0058479532164  7.11603570329332 13.0058479532164  L 8.0024622960911 13.0058479532164  C 8.28870421668205 13.0058479532164  8.46414281317328 12.6939571150097  8.32256078793474 12.4444444444444  L 6.89442905509387 10.0116959064328  C 6.91597414589104 9.97738791423002  7.82702369959987 8.43664717348928  8.31948291782086 7.57894736842105  Z " fill-rule="nonzero" fill="#ffffff" stroke="none" transform="matrix(1 0 0 1 675 347 )" />
  </g>
</svg>